<svg version="1.2" baseProfile="tiny-ps" xmlns="http://www.w3.org/2000/svg" viewBox="0 0 1400 1073" width="1400" height="1073"><title>6262-ai</title><style>tspan { white-space:pre }.shp0 { fill: #e2fafa } .shp1 { fill: #9cdedc } .shp2 { fill: #74bdc1 } .shp3 { fill: #8fd0d6 } .shp4 { opacity: 0.502;fill: #ffffff } .shp5 { fill: #9de0de } .shp6 { fill: #333333 } .shp7 { fill: #ffc0bb } .shp8 { fill: #e03268 } .shp9 { fill: #f3fcff } .shp10 { fill: #cfe4ff } .shp11 { fill: #122f5b } .shp12 { fill: #55769f } .shp13 { fill: #ffffff } .shp14 { fill: #fc8d84 } .shp15 { fill: #f99893 } .shp16 { fill: #3660ac } .shp17 { fill: #daeef7 } .shp18 { fill: #224887 } .shp19 { opacity: 0.8;fill: #ffffff } .shp20 { fill: #e72c3b } .shp21 { fill: #b20b1f } .shp22 { fill: #b6d5e0 } .shp23 { fill: #eaf5f9 } .shp24 { opacity: 0.902;fill: #ffffff } .shp25 { fill: #feb546 } .shp26 { fill: #f4a640 } .shp27 { fill: #18196b } .shp28 { fill: #1b4b79 } .shp29 { fill: #c8eef1 } .shp30 { fill: #fbf9eb } .shp31 { fill: #082948 } </style><g ><g ><path class="shp0" d="M1327.89 865.89C1314.45 762.79 1365.65 654.17 1330.06 556.47C1318.76 525.45 1299.39 498.13 1283.61 469.13C1259.78 425.34 1243.98 377.19 1237.25 327.79C1232.85 295.48 1232.27 262.57 1224.94 230.8C1204.59 142.64 1128.38 70.05 1039.32 54.01C967.55 41.07 893.54 62.54 828.29 95.1C763.04 127.66 703.87 171.13 640.13 206.57C572.3 244.28 499.35 272.77 423.92 291.02C395.96 297.79 367.29 303.29 341.67 316.36C278.06 348.83 245.9 420.44 223.05 488.1C200.19 555.76 179.58 628.61 126.7 676.62C112.52 689.49 96.37 700.18 83.23 714.1C39.99 759.92 38.04 833.6 63.19 891.37C86.09 943.96 139.79 1014.85 192.4 1041.44C194.28 1042.39 196.2 1043.28 198.15 1044.11L347.21 1044.11C375.39 1038.92 402.35 1033.29 425.04 1031.09C513.74 1022.48 603.08 1030.53 692.05 1035.7C873.08 1046.21 1054.58 1044.73 1235.91 1043.26C1262.45 1043.04 1291.09 1042.14 1312.09 1025.92C1334.48 1008.63 1342.25 977.89 1341.12 949.63C1340 921.37 1331.55 893.94 1327.89 865.89Z" /><path class="shp1" d="M1209.05 700.57C1200.49 701.65 1187.45 719.07 1185.91 720.83C1185.05 721.82 1184.15 722.84 1183.23 723.95L1188.9 730.97L1179.51 728.67C1163.78 750.05 1157.24 777.78 1161.99 803.95C1162.6 807.34 1163.35 810.45 1164.07 813.46C1165.21 818.24 1166.29 822.75 1166.12 825.83C1165.8 831.54 1160.81 838.92 1155.53 846.74C1147.99 857.91 1138.59 871.82 1137.29 889.58C1136.32 902.74 1140.14 914.43 1143.21 923.82C1145.31 930.23 1147.29 936.29 1147.04 940.57C1146.76 945.28 1143.59 951.5 1140.23 958.08C1137.95 962.54 1135.37 967.6 1133.25 973.05C1124.71 994.93 1125.01 1019.91 1134.08 1041.58L1175.82 1024.13C1171.31 1013.33 1171.15 1000.38 1175.4 989.49C1176.71 986.15 1178.57 982.5 1180.54 978.65C1185.37 969.17 1191.39 957.38 1192.21 943.2C1192.96 930.37 1189.38 919.43 1186.23 909.77C1184.11 903.29 1182.11 897.16 1182.42 892.89C1182.84 887.15 1187.79 879.82 1193.03 872.06C1199.82 862.02 1208.06 849.81 1210.6 834.59C1202.42 838.02 1188.48 843.96 1186.57 845.45C1184.53 847.04 1202.29 832.45 1211.38 824.98C1211.35 816.64 1209.55 809.12 1208.07 802.93C1207.47 800.41 1206.9 798.03 1206.51 795.88C1203.83 781.11 1208.13 764.76 1217.73 753.21C1218.39 752.42 1219.15 751.56 1219.95 750.64C1223.49 746.6 1227.91 741.56 1231.11 734.62C1231.93 732.85 1232.61 731.07 1233.18 729.29C1238.11 713.85 1225.13 698.55 1209.05 700.57Z" /><path class="shp2" d="M1290.78 770.18L1290.78 770.18C1283.58 768.55 1267.99 778.76 1266.24 779.72C1265.15 780.32 1264.03 780.94 1262.83 781.64C1255.39 785.99 1248.71 791.52 1242.99 797.9L1250.01 815.16L1238.83 802.91C1230.63 813.62 1224.96 826.26 1222.68 839.64C1222.18 842.54 1221.87 845.27 1221.57 847.9C1221.09 852.08 1220.64 856.02 1219.61 858.45C1217.68 862.96 1211.51 867.44 1204.97 872.19C1195.63 878.98 1184 887.43 1177.76 901.34C1173.13 911.65 1172.79 922.18 1172.51 930.63C1172.33 936.41 1172.15 941.86 1170.7 945.24C1169.1 948.94 1164.73 953.02 1160.1 957.34C1156.96 960.27 1153.4 963.58 1150.1 967.34C1136.83 982.46 1129.77 1002.66 1130.73 1022.75L1169.44 1020.9C1168.96 1010.9 1172.62 1000.43 1179.23 992.9C1181.25 990.59 1183.81 988.2 1186.53 985.67C1193.19 979.46 1201.48 971.73 1206.29 960.55C1210.64 950.45 1210.96 940.59 1211.24 931.9C1211.44 926.06 1211.62 920.54 1213.12 917.2C1215.13 912.7 1221.26 908.25 1227.75 903.53C1237.27 896.62 1249.11 888.02 1255.24 873.68C1255.62 872.78 1255.97 871.88 1256.29 870.99L1239.36 870.99L1258.34 863.74C1259.23 859.62 1259.68 855.72 1260.07 852.29C1260.32 850.08 1260.56 848 1260.87 846.15C1263.04 833.48 1271.28 821.58 1282.39 815.09C1283.15 814.64 1284.01 814.17 1284.92 813.67C1288.96 811.45 1293.98 808.69 1298.58 804.04C1299.76 802.85 1300.83 801.61 1301.81 800.35C1302.16 799.9 1302.47 799.44 1302.77 798.98L1288.54 795.32L1305.64 790.79C1306.56 781.69 1300.71 772.43 1290.78 770.18Z" /><path class="shp3" d="M1309.76 862.58C1304.59 860.22 1291.27 865.48 1289.81 865.94C1288.89 866.22 1287.95 866.51 1286.94 866.85C1269.19 872.83 1254.52 886.8 1247.7 904.24C1246.87 906.35 1246.21 908.36 1245.58 910.29C1244.57 913.36 1243.61 916.26 1242.45 917.93C1240.3 921.02 1234.96 923.43 1229.3 925.99C1221.22 929.64 1211.15 934.19 1204.29 943.69C1199.2 950.73 1197.31 958.6 1195.78 964.92C1194.74 969.23 1193.76 973.31 1192.14 975.63C1190.36 978.17 1186.44 980.56 1182.28 983.08C1179.46 984.8 1176.27 986.74 1173.2 989.06C1160.86 998.37 1152.4 1012.47 1150 1027.74L1179.41 1032.37C1180.61 1024.77 1185 1017.46 1191.14 1012.82C1193.02 1011.4 1195.32 1010 1197.76 1008.52C1203.74 1004.88 1211.18 1000.35 1216.54 992.69C1221.39 985.76 1223.16 978.39 1224.73 971.89C1225.78 967.53 1226.78 963.41 1228.43 961.13C1230.65 958.05 1235.95 955.66 1241.57 953.12C1249.8 949.4 1260.06 944.76 1266.9 934.93C1268.52 932.59 1269.79 930.19 1270.83 927.83L1260.52 923.87L1273.35 921.16C1273.52 920.62 1273.7 920.09 1273.87 919.58C1274.4 917.96 1274.9 916.43 1275.43 915.09C1279.03 905.89 1287.08 898.22 1296.45 895.06C1297.09 894.85 1297.81 894.62 1298.58 894.39C1301.96 893.35 1306.17 892.05 1310.36 889.26C1311.43 888.55 1312.43 887.79 1313.36 886.99C1321.46 880.05 1319.47 866.99 1309.76 862.58Z" /><path class="shp4" d="M719.03 410.6C714.75 403.71 708.2 398.56 701.56 393.92C667.34 369.98 626.55 355.54 584.9 352.58C575.09 351.89 562.98 350.27 559.66 341.02C556.6 332.52 563.85 323.53 572.03 319.69C580.2 315.86 589.58 315.02 597.57 310.81C605.56 306.61 612.01 296.71 607.82 288.71C605.3 283.91 599.86 281.51 594.74 279.71C562.48 268.42 528.43 267.91 494.1 270.85C471.01 278.56 447.58 285.3 423.92 291.02C395.96 297.79 367.29 303.29 341.67 316.36C339.39 317.53 337.16 318.74 334.96 320.01C355.96 324.53 377.17 328.07 398.51 330.59C407.42 331.65 418.14 333.85 421.13 342.32C423.68 349.55 418.92 357.77 421.17 365.11C424.16 374.88 436.79 377.04 447 377.43C457.2 377.82 469.83 379.93 472.89 389.68C474.25 394.01 473.11 398.82 470.86 402.77C465.01 413.03 452.62 417.79 440.87 418.94C429.12 420.09 417.23 418.4 405.47 419.47C377.78 421.99 350.82 439.6 323.98 432.34C312.01 429.11 301.9 421.24 290.67 415.99C279.87 410.93 268.38 408.41 256.58 407.35C249.19 421.26 242.67 435.8 236.78 450.54C260.77 449.95 286.27 449.79 306.69 462.38C312.64 466.05 317.95 470.7 323.99 474.22C331.8 478.77 340.67 481.31 349.65 482.22C384.9 485.78 417.48 465.11 451.63 455.69C498.87 442.66 549.4 451.43 596.35 465.44C615.14 471.04 633.89 477.51 653.43 479.07C672.96 480.63 693.86 476.66 708.52 463.65C723.18 450.65 729.38 427.24 719.03 410.6Z" /><path class="shp2" d="M1027.72 1010.42C976.1 966.09 922.49 959.47 866.9 990.57C866.9 934.33 846.38 903.23 805.35 897.27C743.8 888.34 689.2 936.97 703.1 989.58C617.72 973.04 567.09 984.95 551.21 1025.31L1027.72 1029.28L1027.72 1010.42Z" /><path class="shp5" d="M1239.36 1040.81C1207.27 979.73 1161.78 963.03 1102.88 990.71C1092.77 934.46 1050.13 914.47 974.97 930.73C943.32 939.95 925.3 963.91 920.91 1002.58C876.95 986.76 850.8 1000.6 842.45 1044.11L1239.36 1040.81Z" /><path class="shp6" d="M415.11 451.22C408.52 454.95 404.23 459.45 402.25 464.72C399.71 471.47 388.41 470.29 381.34 479.31C373.48 489.33 362.32 504.32 387.93 514.43C403.84 520.7 429.17 525.53 434.91 521.3C440.65 517.06 454.35 518.76 451.27 474.23C426.3 463.81 413.69 458.57 413.44 458.51C413.19 458.44 413.75 456.02 415.11 451.22Z" /><path class="shp6" d="M451.3 470.21C451.3 482.93 440.98 493.24 428.26 493.24C415.54 493.24 405.22 482.93 405.22 470.21C405.22 457.49 415.54 447.17 428.26 447.17C440.98 447.17 451.3 457.49 451.3 470.21Z" /><path class="shp7" d="M513.05 539.8L511.37 540.59C504.21 542.31 463.39 552.03 461.5 550.79C460.13 549.88 456.36 543.08 450.21 530.38L439.73 547.43C446.04 559.39 451.25 566.31 455.36 568.2C461.37 570.97 503.69 555.6 515.61 548.36L516.81 547.82C517.59 547.99 518.99 548.21 521.02 548.5C533.18 549.88 531.93 549.95 532.03 549.48C532.13 549 527.21 546.88 527.5 546.43C527.79 545.97 534.94 546.45 534.6 545.85C534.26 545.25 527.67 543.92 527.8 543.5C527.92 543.08 534.83 543.66 534.8 542.64C534.78 541.63 527.21 541.28 527.49 540.48C527.77 539.69 535.53 540.27 535.37 539.34C535.24 538.56 526.57 537.69 523.81 537.43C523.46 537.4 523.26 536.94 523.47 536.64C526.65 531.94 526.63 531.36 526.06 531.07C525.66 530.87 521.66 533.89 517.76 536.48L513.05 539.8Z" /><g ><g ><path class="shp8" d="M320.82 619.89L581.43 619.89C592.24 619.89 601.01 628.66 601.01 639.47L601.01 1019.6C601.01 1030.41 592.24 1039.18 581.43 1039.18L320.82 1039.18C310 1039.18 301.24 1030.41 301.24 1019.6L301.24 639.47C301.24 628.66 310 619.89 320.82 619.89Z" /></g><path class="shp9" d="M323.31 639.92L578.94 639.92L578.94 997.46L323.31 997.46L323.31 639.92Z" /><path class="shp10" d="M514.89 649.14L376.48 649.14L376.48 633.24C376.48 618.69 388.28 606.9 402.83 606.9L488.54 606.9C503.09 606.9 514.89 618.69 514.89 633.24L514.89 649.14Z" /><path class="shp10" d="M476.47 691.06L342.02 691.06L342.02 681.08L476.47 681.08L476.47 691.06Z" /><path class="shp10" d="M476.47 727.69L342.02 727.69L342.02 717.71L476.47 717.71L476.47 727.69Z" /><path class="shp10" d="M476.47 764.32L342.02 764.32L342.02 754.35L476.47 754.35L476.47 764.32Z" /><path class="shp10" d="M476.47 800.96L342.02 800.96L342.02 790.98L476.47 790.98L476.47 800.96Z" /><path class="shp10" d="M476.47 837.59L342.02 837.59L342.02 827.61L476.47 827.61L476.47 837.59Z" /><path class="shp10" d="M476.47 874.22L342.02 874.22L342.02 864.24L476.47 864.24L476.47 874.22Z" /><path class="shp10" d="M476.47 910.85L342.02 910.85L342.02 900.87L476.47 900.87L476.47 910.85Z" /><path class="shp10" d="M476.47 947.48L342.02 947.48L342.02 937.51L476.47 937.51L476.47 947.48Z" /><path class="shp10" d="M583.09 754.26L506.82 754.26L506.82 681.08L583.09 681.08L583.09 754.26Z" /><path class="shp10" d="M583.09 850.87L506.82 850.87L506.82 777.69L583.09 777.69L583.09 850.87Z" /><path class="shp10" d="M583.09 947.48L506.82 947.48L506.82 874.3L583.09 874.3L583.09 947.48Z" /></g><path class="shp7" d="M496.48 697.22L495.89 711.65L483.35 706.83L485.02 696.45L496.48 697.22Z" /><g ><path class="shp11" d="M506.89 729.5L477.79 719.82C476.89 719.52 476.41 718.55 476.7 717.65C477 716.75 477.98 716.26 478.87 716.56L507.98 726.24C508.87 726.54 509.36 727.51 509.06 728.41C508.76 729.31 507.79 729.8 506.89 729.5Z" /><g ><path class="shp12" d="M482.02 706.62L477.93 715.32C477.43 716.39 477.72 717.61 478.54 717.89L507.05 727.37C507.79 727.62 508.68 727.4 509.36 726.66C510.05 725.9 510.58 724.59 509.9 722.36C508.56 717.95 500.62 714.31 497.47 709.92C497.41 709.83 497.32 709.77 497.22 709.73L484.1 705.37C483.35 705.12 482.47 705.65 482.02 706.62Z" /></g><g ><path class="shp13" d="M493.61 714.37C493.45 714.18 493.49 713.81 493.69 713.58C494.67 712.53 497.42 710.09 500.78 711.89C500.97 712 501.02 712.32 500.89 712.59L500.89 712.6C500.76 712.86 500.52 712.97 500.33 712.87C497.32 711.27 494.95 713.44 494.15 714.33C493.98 714.51 493.75 714.54 493.61 714.37Z" /></g><g ><path class="shp13" d="M496.18 716.52C496.02 716.33 496.06 715.96 496.27 715.73C497.24 714.68 500 712.24 503.35 714.04C503.54 714.15 503.59 714.47 503.46 714.74L503.46 714.75C503.33 715.01 503.09 715.13 502.9 715.03C499.89 713.42 497.52 715.59 496.72 716.48C496.55 716.67 496.32 716.69 496.18 716.52Z" /></g><g ><path class="shp13" d="M498.58 718.53C498.41 718.33 498.45 717.96 498.66 717.74C499.63 716.68 502.39 714.24 505.74 716.05C505.94 716.15 505.98 716.47 505.86 716.74L505.85 716.75C505.73 717.01 505.48 717.13 505.29 717.03C502.28 715.42 499.91 717.59 499.11 718.48C498.94 718.67 498.71 718.69 498.58 718.53Z" /></g></g><path class="shp11" d="M401.39 596.32C397.49 614.67 404.38 626.03 422.08 630.38C439.78 634.74 459.79 637.14 482.12 637.58L482.74 701.7L496.72 703.3C524.51 645.7 522.05 611.23 489.32 599.89L444.41 597.27L426.01 594.79C413.73 590.92 407.5 589.27 407.32 589.85C407.04 590.72 401.8 596.79 401.39 596.32Z" /><g ><path class="shp7" d="M432.64 505.48C421.73 503.04 413.44 501.91 407.78 502.11C402.12 502.3 403.14 509.84 410.83 524.73L424.7 525.04C430.34 521.28 433.57 519.43 434.39 519.48C437.51 519.66 437.85 515.27 435.42 506.31L432.64 505.48Z" /></g><g ><path class="shp7" d="M416.18 487.87L411.31 502.65C414.13 508.49 419.88 510.15 428.53 507.63C427.54 505.59 427.71 502.47 429.04 498.27C430.39 493.97 426.1 490.51 416.18 487.87Z" /></g><g style="opacity: 0.6"><path class="shp14" d="M416.18 487.87L413.89 494.77C415.25 499.82 419.67 503.25 428.01 504.32C428 502.82 428.24 500.81 429.04 498.27C430.39 493.97 426.1 490.51 416.18 487.87Z" /></g><g ><path class="shp15" d="M445.88 477.05C444.83 479.45 445.53 482.08 447.45 482.92C449.37 483.76 451.78 482.5 452.84 480.1C453.89 477.7 453.19 475.07 451.27 474.23C449.35 473.39 446.94 474.65 445.88 477.05Z" /></g><g ><path class="shp7" d="M444.81 491.22C445.44 490.19 445.98 489.1 446.42 487.94C447.67 484.85 448.34 481.56 448.7 478.67C448.78 478.06 448.89 477.44 449.01 476.83C449.51 474.37 449.57 471.74 449.06 469.02C447.42 460.28 440.09 453.53 431.24 452.63C419.31 451.43 409.18 460.6 408.87 472.26C407.62 471.52 406.2 471.32 404.93 471.85C402.5 472.86 401.55 476.14 402.81 479.18C404.07 482.22 407.07 483.87 409.5 482.86C409.84 482.72 410.15 482.53 410.43 482.31C411.17 492.26 419.1 500.14 428.86 500.24C433.63 500.28 438 498.46 441.34 495.43C441.56 495.25 441.79 495.04 442.04 494.8C443.12 493.74 444.03 492.53 444.81 491.22Z" /></g><path class="shp15" d="M440.18 473.36C439.79 474.46 439.59 475.61 439.53 476.78C439.5 477.36 439.51 477.95 439.59 478.56C439.68 479.16 439.82 479.78 440.2 480.38L440.37 480.6L440.52 480.78C440.59 480.87 440.68 480.94 440.72 481.04C440.84 481.21 440.92 481.4 440.94 481.59C441.03 481.99 440.84 482.41 440.56 482.79C439.94 483.56 438.86 483.98 437.74 484.21C438.86 484.43 440.19 484.29 441.18 483.38C441.67 482.95 442.04 482.25 441.99 481.5C441.97 481.31 441.94 481.12 441.88 480.95C441.83 480.77 441.74 480.61 441.65 480.46C441.56 480.29 441.44 480.18 441.33 480.04C441.26 479.96 441.25 479.93 441.21 479.89L441.12 479.77C440.88 479.4 440.73 478.89 440.62 478.38C440.49 477.86 440.45 477.31 440.39 476.76C440.29 475.65 440.25 474.52 440.18 473.36Z" /><path class="shp7" d="M473.23 695.48L466.77 713.97L457.27 704.48L460.7 695.72L473.23 695.48Z" /><path class="shp6" d="M433.31 475.72C433.3 476.69 432.5 477.48 431.53 477.47C430.55 477.46 429.76 476.66 429.77 475.68C429.78 474.7 430.58 473.92 431.56 473.93C432.54 473.94 433.32 474.74 433.31 475.72Z" /><path class="shp6" d="M446.46 476.04C446.45 477.02 445.65 477.8 444.67 477.79C443.7 477.78 442.91 476.98 442.92 476C442.93 475.03 443.73 474.24 444.71 474.25C445.69 474.26 446.47 475.06 446.46 476.04Z" /><g style="opacity: 0.302;mix-blend-mode: multiply"><path class="shp15" d="M433.05 487.47C434.66 486.9 436.22 487.11 437.73 488.1C439.36 487.07 440.82 487.05 442.11 488.03C441.51 490.46 439.87 491.59 437.19 491.43C434.5 491.26 433.13 489.95 433.05 487.47Z" /></g><g ><path class="shp15" d="M430.94 486.17C431.4 486.54 431.87 486.88 432.37 487.17C432.87 487.48 433.38 487.75 433.9 487.98C434.96 488.45 436.07 488.77 437.2 488.87C438.34 488.97 439.49 488.83 440.58 488.49C441.68 488.14 442.71 487.6 443.69 486.95C443.25 487.34 442.78 487.7 442.29 488.02C441.79 488.34 441.25 488.59 440.7 488.81C440.14 489.02 439.56 489.18 438.96 489.26C438.37 489.34 437.77 489.35 437.17 489.31C435.97 489.2 434.81 488.84 433.76 488.29C432.71 487.74 431.73 487.04 430.94 486.17Z" /></g><path class="shp6" d="M433.97 470.43C433.06 470.18 432.21 470 431.36 469.9C430.52 469.8 429.7 469.81 428.9 469.94C428.11 470.07 427.32 470.27 426.56 470.65C426.16 470.79 425.81 471.05 425.41 471.23C425.02 471.45 424.66 471.71 424.22 471.92C424.43 471.5 424.67 471.09 424.96 470.72C425.28 470.37 425.59 469.98 425.99 469.71C426.75 469.09 427.72 468.72 428.7 468.56C429.69 468.4 430.7 468.51 431.62 468.84C432.53 469.17 433.37 469.69 433.97 470.43Z" /><path class="shp6" d="M442.05 470.43C442.74 469.77 443.64 469.36 444.58 469.14C445.53 468.92 446.56 468.94 447.52 469.22C448.47 469.49 449.38 469.98 450.06 470.69C450.43 471.01 450.69 471.43 450.96 471.81C451.2 472.22 450.3 471.83 450.46 472.27C450.05 472.01 450.82 472.53 450.46 472.27C450.08 472.04 449.76 471.74 449.38 471.55C448.68 471.08 447.91 470.79 447.14 470.56C446.37 470.34 445.56 470.23 444.71 470.22C443.86 470.22 442.99 470.29 442.05 470.43Z" /><path class="shp16" d="M442.59 547.16C440.19 554.18 438.77 559.56 438.33 563.29C436.7 577.19 439.71 589.12 442.59 597.03C446.63 608.12 412.43 601.96 411.76 601.62C411.31 601.4 401.67 597.64 382.84 590.36L380.71 568.58L377.46 547.16L378.97 534.55L442.59 547.16Z" /><g ><path class="shp7" d="M388.42 516.53C391.34 516.79 392.64 519.45 392.32 524.52C392 529.6 390.66 536.96 388.29 546.62C365.28 590.83 351.26 615.09 346.21 619.39C345.8 619.74 345.29 619.93 344.75 619.95L321.49 619.86C322.48 618.86 323.52 618.22 324.58 617.94L335.42 615.07C335.85 614.95 336.21 614.67 336.43 614.28L339.9 607.94L366.07 538.14C368.74 531.92 375.1 528.37 379.46 523.19C382.65 519.41 386.13 516.16 388.42 516.53Z" /></g><g ><path class="shp16" d="M435.42 506.31C435.2 510.72 432.01 516.6 425.83 523.95C424.16 520.26 407.99 502.33 407.78 502.11C401.12 502.21 386.99 503.19 378.35 509.33C370.62 514.82 364.44 523.73 359.81 536.06C373.82 543.12 382.56 546.82 386.03 547.16L444.38 547.16C450.32 546.71 456.14 545.03 461.86 542.12C460.94 523.84 452.13 511.91 435.42 506.31Z" /></g><g ><path class="shp17" d="M395.38 525.04C394.78 526.83 394.24 528.65 393.71 530.47C393.16 532.28 392.68 534.12 392.19 535.95C391.73 537.79 391.26 539.62 390.86 541.48C390.46 543.34 390.07 545.2 389.77 547.08L390.22 546.63C389.65 546.69 388.94 546.67 388.29 546.62C387.63 546.58 386.97 546.48 386.3 546.38C384.98 546.15 383.66 545.89 382.35 545.53L381.37 545.27L380.4 544.97C379.76 544.77 379.11 544.58 378.47 544.35L376.54 543.69L374.64 542.95C373.37 542.48 372.13 541.91 370.87 541.4L367.15 539.7L363.46 537.92C362.25 537.29 361.03 536.67 359.81 536.06C360.96 536.8 362.13 537.51 363.3 538.22C364.48 538.91 365.67 539.59 366.87 540.25C368.08 540.89 369.31 541.52 370.53 542.13L372.4 543C373.02 543.29 373.65 543.58 374.29 543.83C376.81 544.92 379.41 545.84 382.08 546.57L383.08 546.84L384.09 547.07C384.76 547.24 385.45 547.35 386.13 547.47C386.82 547.56 387.52 547.66 388.22 547.7C388.93 547.74 389.6 547.77 390.38 547.69L390.77 547.64L390.83 547.24C391.4 543.52 392.15 539.82 392.94 536.12L394.14 530.58L395.38 525.04Z" /></g><g ><path class="shp17" d="M439.73 520.78C440.56 522.93 441.3 525.09 441.97 527.27C442.63 529.45 443.21 531.65 443.59 533.88C443.81 534.98 443.95 536.11 444.04 537.23C444.15 538.35 444.17 539.47 444.12 540.59C444.04 542.84 440.71 553.4 439.73 555.5C441.12 553.64 444.74 542.99 444.98 540.66C445.26 538.33 445.07 535.97 444.68 533.68C444.46 532.54 444.21 531.4 443.89 530.29C443.56 529.17 443.21 528.07 442.78 526.99C441.95 524.83 440.97 522.73 439.73 520.78Z" /></g><path class="shp18" d="M381.89 589.57C376.25 596.97 375.06 606.98 379.18 615.33C382.04 621.12 387.44 626.52 397.4 628.97C415.09 633.33 435.11 635.73 457.44 636.17L458.06 700.29L472.03 701.89C499.83 644.29 497.36 609.82 464.64 598.48L419.73 595.86L401.33 593.37C389.05 589.51 382.82 587.86 382.63 588.44C382.58 588.62 382.3 589.04 381.89 589.57Z" /><path class="shp17" d="M464.9 637.88C464.19 637.75 463.48 637.63 462.77 637.47C462.07 637.31 461.38 637.12 460.69 636.91C460.34 636.8 460 636.69 459.66 636.56C460.01 636.49 460.36 636.38 460.7 636.26C461.38 636.02 462.02 635.68 462.61 635.28C463.19 634.86 463.73 634.4 464.21 633.88C464.69 633.36 465.1 632.78 465.46 632.19L464.75 632.95C464.5 633.19 464.26 633.44 464 633.66C463.49 634.13 462.93 634.53 462.35 634.88C461.77 635.24 461.16 635.52 460.52 635.74C459.89 635.96 459.21 636.11 458.58 636.13L457.42 636.18L458.45 636.65C459.15 636.98 459.84 637.19 460.55 637.39C461.26 637.59 461.98 637.73 462.7 637.85C463.42 637.97 464.14 638.07 464.87 638.12C465.6 638.17 466.33 638.21 467.05 638.21C466.33 638.1 465.61 638.01 464.9 637.88Z" /><path class="shp19" d="M1175.23 214.16C1172.78 203.47 1163.2 195.48 1151.75 195.48C1149.65 195.48 1147.61 195.75 1145.67 196.26C1140.02 184.18 1127.76 175.81 1113.54 175.81C1109.87 175.81 1106.32 176.37 1102.99 177.41C1095.33 164.74 1081.43 156.26 1065.54 156.26C1046.64 156.26 1030.54 168.26 1024.44 185.05C1020.12 182.64 1015.15 181.26 1009.86 181.26C993.29 181.26 979.86 194.69 979.86 211.25C979.86 212.24 979.91 213.21 980 214.16L1175.23 214.16Z" /><g ><path fill-rule="evenodd" class="shp13" d="M1042.02 617.69C1042.17 629.91 1036.83 641.55 1027.46 649.4C1009.66 664.32 974.69 684.93 916.92 685.68L916.92 703.75C916.92 714.31 908.37 722.86 897.81 722.86C887.26 722.86 878.7 714.31 878.7 703.75L878.7 685.7C818.23 686 781.9 664.7 763.64 649.4C754.27 641.55 748.93 629.91 749.08 617.69L752.79 326.77C753.02 308.89 765.74 293.6 783.29 290.13L814.98 283.86C819.98 282.87 824.47 280.12 827.62 276.1L839.88 260.49C843.23 256.21 848.37 253.71 853.81 253.71L937.29 253.71C942.73 253.71 947.86 256.21 951.22 260.49L963.48 276.1C966.63 280.12 971.12 282.87 976.12 283.86L1007.81 290.13C1025.36 293.6 1038.08 308.89 1038.31 326.77L1042.02 617.69ZM880.06 287.58C880.06 296.13 887 303.06 895.55 303.06C904.1 303.06 911.04 296.13 911.04 287.58C911.04 279.03 904.1 272.09 895.55 272.09C887 272.09 880.06 279.03 880.06 287.58Z" /><path class="shp17" d="M782.51 355.84C775.36 356.81 770.01 362.81 769.92 369.96L766.95 600.69C766.81 611.33 771.5 621.47 779.73 628.3C796.26 642.03 829.64 661.31 885.72 659.83C892.27 659.65 898.83 659.65 905.38 659.83C961.46 661.31 994.84 642.03 1011.37 628.3C1019.6 621.47 1024.29 611.33 1024.15 600.69L1021.16 367.94C1021.06 360.73 1015.62 354.69 1008.4 353.8C915.69 342.34 832.45 349.06 782.51 355.84Z" /><g ><path class="shp20" d="M1010.59 444.84L895.79 461.97L780.74 433.1L780.66 432.99L778.66 589.92C778.54 599.67 782.8 608.97 790.28 615.23C805.3 627.82 835.64 645.49 886.61 644.13C892.57 643.97 898.53 643.97 904.48 644.13C955.46 645.49 985.8 627.82 1000.82 615.23C1008.3 608.97 1012.56 599.67 1012.44 589.92L1010.59 444.84Z" /></g><path class="shp21" d="M780.74 433.1C846.09 452.12 898.13 450.72 936.87 428.9C994.98 396.17 1046.09 442.56 979.09 477.33C933.22 501.14 867.11 486.39 780.74 433.1Z" /><path class="shp13" d="M869.9 491.44L794.98 491.44C791.81 491.44 789.24 488.87 789.24 485.7L789.24 410.8C789.24 407.63 791.81 405.06 794.98 405.06L869.9 405.06C873.07 405.06 875.64 407.63 875.64 410.8L875.64 485.7C875.64 488.87 873.07 491.44 869.9 491.44Z" /><g style="opacity: 0.502;mix-blend-mode: screen"><path class="shp13" d="M990.78 604.31L983.3 604.31C976.75 604.31 971.44 599 971.44 592.46L971.44 381.47C971.44 374.92 976.75 369.61 983.3 369.61L990.78 369.61C997.33 369.61 1002.63 374.92 1002.63 381.47L1002.63 592.46C1002.63 599 997.33 604.31 990.78 604.31Z" /></g><g style="mix-blend-mode: multiply"><path class="shp22" d="M865.3 425.21L798.83 425.21L798.83 421.23L865.3 421.23L865.3 425.21Z" /></g><g style="mix-blend-mode: multiply"><path class="shp22" d="M865.3 439.33L798.83 439.33L798.83 435.35L865.3 435.35L865.3 439.33Z" /></g><g style="mix-blend-mode: multiply"><path class="shp22" d="M865.3 453.46L798.83 453.46L798.83 449.48L865.3 449.48L865.3 453.46Z" /></g><g style="mix-blend-mode: multiply"><path class="shp22" d="M865.3 467.59L798.83 467.59L798.83 463.6L865.3 463.6L865.3 467.59Z" /></g></g><g ><path class="shp7" d="M589.24 611.22C587.58 611.12 586.36 609.62 586.38 607.96C586.52 594.85 586.81 521.83 575.65 523.77C563.39 525.91 565.53 625.14 566.11 636.04C566.7 646.93 568.06 699.86 570.78 711.92C573.51 723.98 579.51 979.64 576.43 1039.18L691.44 1039.18C671.2 854.21 663.15 754.85 667.3 741.1C673.53 720.48 678.2 706.08 692.99 685.07C707.78 664.06 705.84 628.64 710.51 618.53C715.18 608.41 726.08 594.21 716.73 589.93C707.39 585.65 690.07 612.89 683.07 638.96C680.08 643.76 677.49 643.17 675.28 637.21C671.98 628.26 666.14 529.22 665.75 521.83C665.36 514.44 661.86 508.21 656.6 508.79C651.35 509.38 649.01 527.67 648.43 557.63C647.84 587.59 649.44 611.91 643 610.75C636.56 609.58 639.48 516.19 634.42 500.43C629.36 484.67 619.43 495.56 619.63 514.63C619.82 533.7 622.74 608.02 616.71 607.24C610.68 606.46 613.59 503.93 603.09 504.9C592.23 505.91 592.19 521.83 592.19 549.07C592.19 573.92 597.86 611.74 589.24 611.22Z" /></g><path class="shp15" d="M577.59 627.28C609.9 617.17 638.21 616.48 662.54 625.24C633.15 622.9 604.84 623.59 577.59 627.28Z" /><path class="shp15" d="M579.15 654.52C607.17 678.91 623.97 697.13 629.55 709.19C644.6 681.7 658.22 663.02 670.42 653.16C651.87 661.2 638.44 672.75 630.14 687.79C614.44 671.19 597.44 660.1 579.15 654.52Z" /><path class="shp15" d="M579.15 714.64C581.48 729.95 594.07 736.5 616.9 734.29C598.33 731.09 585.75 724.54 579.15 714.64Z" /><g ><path class="shp17" d="M654.24 804.92L595.33 804.92C591.12 804.92 587.71 808.33 587.71 812.54L587.71 871.43C587.71 875.64 591.12 879.05 595.33 879.05L617.16 879.05L617.16 904.69C617.16 908.9 620.58 912.31 624.78 912.31C628.99 912.31 632.4 908.9 632.4 904.69L632.4 879.05L654.24 879.05C658.44 879.05 661.86 875.64 661.86 871.43L661.86 812.54C661.86 808.33 658.44 804.92 654.24 804.92Z" /></g><g ><path class="shp23" d="M644.42 865.76L605.14 865.76C602.86 865.76 601.01 863.91 601.01 861.62L601.01 822.35C601.01 820.07 602.86 818.22 605.14 818.22L644.42 818.22C646.71 818.22 648.56 820.07 648.56 822.35L648.56 861.62C648.56 863.91 646.71 865.76 644.42 865.76Z" /></g><g ><path class="shp24" d="M760 1025.04L719.53 1025.04L719.53 776.84L760 776.84L760 1025.04Z" /><g ><path class="shp25" d="M763.86 798.23L715.67 798.23C713.53 798.23 711.79 796.5 711.79 794.36L711.79 766.28C711.79 764.14 713.53 762.41 715.67 762.41L763.86 762.41C766 762.41 767.73 764.14 767.73 766.28L767.73 794.36C767.73 796.5 766 798.23 763.86 798.23Z" /></g><g ><path class="shp26" d="M723.85 798.1L717.42 798.1L717.42 762.41L723.85 762.41L723.85 798.1Z" /></g><g ><path class="shp26" d="M736.6 798.1L730.17 798.1L730.17 762.41L736.6 762.41L736.6 798.1Z" /></g><g ><path class="shp26" d="M749.35 798.1L742.92 798.1L742.92 762.41L749.35 762.41L749.35 798.1Z" /></g><g ><path class="shp26" d="M762.11 798.1L755.68 798.1L755.68 762.41L762.11 762.41L762.11 798.1Z" /></g><g ><path class="shp26" d="M749.86 809.51L729.67 809.51C726.46 809.51 723.85 806.91 723.85 803.69L723.85 798.1L755.68 798.1L755.68 803.69C755.68 806.91 753.07 809.51 749.86 809.51Z" /></g><g ><path class="shp20" d="M755.76 1025.04L723.77 1025.04L723.77 893.21L737.39 898.24L755.76 893.21L755.76 1025.04Z" /></g><path class="shp21" d="M723.77 893.21C733.05 895.98 740.43 895.78 745.93 892.6C754.18 887.83 760.32 892.77 751.93 899.65C746.17 904.38 736.78 902.23 723.77 893.21Z" /><g style="opacity: 0.2"><path class="shp13" d="M731.38 1021.69L728.96 1021.69C727.88 1021.69 727.01 1020.82 727.01 1019.74L727.01 805.76C727.01 804.68 727.88 803.81 728.96 803.81L731.38 803.81C732.46 803.81 733.33 804.68 733.33 805.76L733.33 1019.74C733.33 1020.82 732.46 1021.69 731.38 1021.69Z" /></g><path class="shp24" d="M829.94 1025.04L789.47 1025.04L789.47 776.84L829.94 776.84L829.94 1025.04Z" /><g ><path class="shp25" d="M833.79 798.23L785.61 798.23C783.47 798.23 781.73 796.5 781.73 794.36L781.73 766.28C781.73 764.14 783.47 762.41 785.61 762.41L833.79 762.41C835.93 762.41 837.67 764.14 837.67 766.28L837.67 794.36C837.67 796.5 835.93 798.23 833.79 798.23Z" /></g><g ><path class="shp26" d="M793.79 798.1L787.36 798.1L787.36 762.41L793.79 762.41L793.79 798.1Z" /></g><g ><path class="shp26" d="M806.54 798.1L800.11 798.1L800.11 762.41L806.54 762.41L806.54 798.1Z" /></g><g ><path class="shp26" d="M819.29 798.1L812.86 798.1L812.86 762.41L819.29 762.41L819.29 798.1Z" /></g><g ><path class="shp26" d="M832.04 798.1L825.61 798.1L825.61 762.41L832.04 762.41L832.04 798.1Z" /></g><g ><path class="shp26" d="M819.8 809.51L799.61 809.51C796.39 809.51 793.79 806.91 793.79 803.69L793.79 798.1L825.61 798.1L825.61 803.69C825.61 806.91 823.01 809.51 819.8 809.51Z" /></g><g ><path class="shp20" d="M825.69 1025.04L793.71 1025.04L793.71 893.21L807.33 898.24L825.69 893.21L825.69 1025.04Z" /></g><path class="shp21" d="M793.71 893.21C802.98 895.98 810.37 895.78 815.87 892.6C824.12 887.83 830.25 892.77 821.86 899.65C816.1 904.38 806.72 902.23 793.71 893.21Z" /><g style="opacity: 0.2"><path class="shp13" d="M801.32 1021.69L798.9 1021.69C797.82 1021.69 796.95 1020.82 796.95 1019.74L796.95 805.76C796.95 804.68 797.82 803.81 798.9 803.81L801.32 803.81C802.4 803.81 803.27 804.68 803.27 805.76L803.27 1019.74C803.27 1020.82 802.4 1021.69 801.32 1021.69Z" /></g><path class="shp24" d="M899.87 1025.04L859.4 1025.04L859.4 776.84L899.87 776.84L899.87 1025.04Z" /><g ><path class="shp25" d="M903.73 798.23L855.54 798.23C853.4 798.23 851.67 796.5 851.67 794.36L851.67 766.28C851.67 764.14 853.4 762.41 855.54 762.41L903.73 762.41C905.87 762.41 907.61 764.14 907.61 766.28L907.61 794.36C907.61 796.5 905.87 798.23 903.73 798.23Z" /></g><g ><path class="shp26" d="M863.72 798.1L857.29 798.1L857.29 762.41L863.72 762.41L863.72 798.1Z" /></g><g ><path class="shp26" d="M876.48 798.1L870.05 798.1L870.05 762.41L876.48 762.41L876.48 798.1Z" /></g><g ><path class="shp26" d="M889.23 798.1L882.8 798.1L882.8 762.41L889.23 762.41L889.23 798.1Z" /></g><g ><path class="shp26" d="M901.98 798.1L895.55 798.1L895.55 762.41L901.98 762.41L901.98 798.1Z" /></g><g ><path class="shp26" d="M889.73 809.51L869.54 809.51C866.33 809.51 863.72 806.91 863.72 803.69L863.72 798.1L895.55 798.1L895.55 803.69C895.55 806.91 892.94 809.51 889.73 809.51Z" /></g><g ><path class="shp20" d="M895.63 1025.04L863.64 1025.04L863.64 893.21L877.26 898.24L895.63 893.21L895.63 1025.04Z" /></g><path class="shp21" d="M863.64 893.21C872.92 895.98 880.31 895.78 885.81 892.6C894.06 887.83 900.19 892.77 891.8 899.65C886.04 904.38 876.65 902.23 863.64 893.21Z" /><g style="opacity: 0.2"><path class="shp13" d="M871.26 1021.69L868.83 1021.69C867.76 1021.69 866.88 1020.82 866.88 1019.74L866.88 805.76C866.88 804.68 867.76 803.81 868.83 803.81L871.26 803.81C872.33 803.81 873.21 804.68 873.21 805.76L873.21 1019.74C873.21 1020.82 872.33 1021.69 871.26 1021.69Z" /></g></g><path fill-rule="evenodd" class="shp27" d="M934.79 861.12L934.79 1021.69L957.93 1021.69C960.53 1021.69 962.63 1023.8 962.63 1026.39L962.63 1034.77C962.63 1037.37 960.53 1039.48 957.93 1039.48L661.47 1039.48C658.87 1039.48 656.77 1037.37 656.77 1034.77L656.77 1026.39C656.77 1023.8 658.87 1021.69 661.47 1021.69L684.61 1021.69L684.61 861.12L663.15 861.12C659.62 861.12 656.77 858.27 656.77 854.74L656.77 838.5C656.77 834.98 659.62 832.13 663.15 832.13L956.25 832.13C959.78 832.13 962.63 834.98 962.63 838.5L962.63 854.74C962.63 858.27 959.78 861.12 956.25 861.12L934.79 861.12ZM923.58 861.12L695.82 861.12L695.82 1021.69L923.58 1021.69L923.58 861.12Z" /><path class="shp13" d="M990.31 881.91C987.75 853.25 972.27 828.16 958.6 805.99C951.92 795.15 945 783.94 937.63 773.2C935.56 770.18 933.41 767.13 931.33 764.18C918.96 746.62 906.18 728.46 903.31 708.08L890.3 709.91C893.61 733.43 907.33 752.91 920.59 771.74C922.65 774.66 924.77 777.68 926.8 780.63C933.99 791.11 940.82 802.18 947.44 812.91C960.33 833.82 974.95 857.51 977.22 883.08C978.75 900.18 974.23 916.47 964.83 927.77C952.66 942.42 931.55 950.57 900.29 952.71C890.81 953.36 880.71 953.65 871.14 951.37C866.06 950.16 861.11 948.24 855.88 946.2C854 945.47 852.06 944.72 850.11 944C827.27 935.57 806.31 933.43 787.8 937.66C770.63 941.58 755.8 950.85 741.46 959.82C737.72 962.16 733.85 964.58 730.05 966.83C708.2 979.76 690.31 984.2 675.35 980.42C661.6 976.95 649.03 965.9 640.86 950.12C633.53 935.96 634.21 924.41 631.6 908.08C630.35 910.59 627.77 912.31 624.78 912.31C622.97 912.31 621.3 911.67 619.99 910.61C620.58 920.31 622.62 943.46 629.19 956.15C639.09 975.28 654.74 988.76 672.13 993.15C676.62 994.29 681.27 994.86 686.09 994.86C701.12 994.86 717.83 989.32 736.74 978.13C740.68 975.8 744.62 973.34 748.42 970.96C762.46 962.18 775.72 953.89 790.72 950.46C806.7 946.81 825.16 948.79 845.56 956.32C847.4 957 849.29 957.73 851.12 958.44C856.53 960.55 862.14 962.73 868.1 964.15C879.41 966.83 891.17 966.5 901.19 965.81C936.22 963.42 960.34 953.72 974.93 936.17C986.53 922.22 992.14 902.44 990.31 881.91Z" /><path class="shp20" d="M986.71 882.23C984.23 854.42 968.99 829.71 955.53 807.89C948.86 797.08 941.97 785.91 934.65 775.24C932.59 772.24 930.45 769.2 928.38 766.26C915.76 748.35 902.72 729.83 899.73 708.58L893.88 709.4C897.07 732.07 910.53 751.18 923.54 769.66C925.61 772.59 927.74 775.62 929.77 778.58C937.02 789.14 943.87 800.25 950.51 811.02C963.62 832.26 978.47 856.34 980.82 882.76C982.43 900.8 977.62 918.05 967.61 930.08C954.77 945.52 932.83 954.11 900.54 956.31C890.77 956.98 880.35 957.27 870.3 954.89C864.98 953.62 859.69 951.56 854.57 949.57C852.71 948.85 850.78 948.1 848.86 947.39C826.69 939.2 806.42 937.11 788.6 941.18C772.03 944.96 757.46 954.07 743.37 962.88C739.61 965.23 735.73 967.66 731.89 969.94C709.18 983.37 690.4 987.95 674.46 983.92C659.72 980.2 646.3 968.48 637.65 951.78C630.36 937.68 631.34 926.64 629.07 910.98C627.85 911.82 626.38 912.31 624.78 912.31C624.27 912.31 623.76 912.26 623.28 912.16C625.61 928.22 624.76 939.72 632.4 954.49C641.83 972.7 656.63 985.51 673.02 989.65C677.21 990.71 681.56 991.25 686.09 991.25C700.45 991.24 716.56 985.88 734.9 975.02C738.8 972.71 742.72 970.26 746.51 967.89C760.18 959.34 774.32 950.5 789.92 946.94C806.59 943.13 825.74 945.15 846.81 952.93C848.68 953.62 850.59 954.36 852.43 955.08C857.73 957.14 863.21 959.28 868.94 960.64C879.75 963.2 890.71 962.91 900.94 962.21C934.93 959.88 958.22 950.61 972.15 933.86C983.15 920.64 988.46 901.82 986.71 882.23Z" /><path class="shp7" d="M1054.61 1017.11L1054.31 1025.67L1067.72 1025.01L1070.88 1014.55L1054.61 1017.11Z" /><path class="shp7" d="M1139.09 1004.19L1148.82 1018.74L1159.33 1010.37L1155.78 1000.04L1139.09 1004.19Z" /><g ><path class="shp13" d="M1143.7 1039.07L1168.54 1021.09C1169.3 1020.53 1169.48 1019.46 1168.92 1018.69C1168.36 1017.92 1167.29 1017.75 1166.52 1018.31L1141.69 1036.3C1140.92 1036.85 1140.75 1037.92 1141.3 1038.69C1141.86 1039.46 1142.93 1039.63 1143.7 1039.07Z" /><path class="shp6" d="M1160.53 1009.77L1167.05 1016.84C1167.85 1017.71 1167.94 1018.96 1167.24 1019.47L1142.91 1037.1C1142.28 1037.55 1141.37 1037.61 1140.5 1037.11C1139.6 1036.6 1138.71 1035.5 1138.68 1033.17C1138.63 1028.56 1145.11 1022.7 1146.79 1017.57C1146.82 1017.47 1146.89 1017.38 1146.98 1017.31L1158.17 1009.2C1158.81 1008.74 1159.81 1008.99 1160.53 1009.77Z" /><g ><path class="shp13" d="M1151.81 1020.65C1151.91 1020.42 1151.76 1020.08 1151.49 1019.92C1150.25 1019.21 1146.89 1017.72 1144.23 1020.45C1144.08 1020.6 1144.13 1020.92 1144.33 1021.14L1144.34 1021.15C1144.54 1021.36 1144.8 1021.4 1144.95 1021.25C1147.34 1018.81 1150.26 1020.16 1151.29 1020.77C1151.51 1020.9 1151.73 1020.85 1151.81 1020.65Z" /></g><g ><path class="shp13" d="M1150 1023.48C1150.1 1023.24 1149.95 1022.9 1149.69 1022.75C1148.44 1022.04 1145.08 1020.54 1142.42 1023.27C1142.27 1023.43 1142.32 1023.75 1142.53 1023.97L1142.53 1023.97C1142.73 1024.19 1143 1024.22 1143.15 1024.07C1145.53 1021.63 1148.45 1022.99 1149.48 1023.59C1149.7 1023.72 1149.92 1023.68 1150 1023.48Z" /></g><g ><path class="shp13" d="M1148.33 1026.11C1148.42 1025.87 1148.27 1025.53 1148.01 1025.38C1146.76 1024.67 1143.4 1023.17 1140.75 1025.9C1140.59 1026.06 1140.64 1026.38 1140.85 1026.6L1140.85 1026.61C1141.05 1026.82 1141.32 1026.86 1141.47 1026.7C1143.86 1024.27 1146.77 1025.62 1147.8 1026.23C1148.02 1026.36 1148.25 1026.31 1148.33 1026.11Z" /></g></g><g ><path class="shp20" d="M899.73 708.58C897.59 682.01 898.34 653.68 901.98 623.59C905.62 593.49 901.37 594.73 889.23 627.28C888.97 669.55 890.52 696.92 893.88 709.4C897.24 721.88 899.19 721.61 899.73 708.58Z" /></g><path class="shp6" d="M1116.74 681.75C1117.24 682.03 1117.73 682.35 1118.14 682.75C1119.51 684.11 1119.92 686.27 1121.41 687.51C1122.15 688.13 1123.08 688.46 1123.94 688.89C1125.12 689.48 1126.25 690.34 1126.71 691.58C1126.97 692.27 1127 693.03 1127.03 693.78C1127.07 695.12 1127.11 696.5 1126.71 697.79C1126.48 698.54 1126.1 699.24 1125.91 700C1125.54 701.5 1125.94 703.1 1125.71 704.64C1125.53 705.8 1125 706.87 1124.48 707.92C1124.21 708.47 1123.93 709.02 1123.51 709.47C1122.43 710.61 1120.68 710.78 1119.11 710.63C1117.55 710.48 1115.97 710.09 1114.43 710.38C1113.14 710.63 1111.99 711.35 1110.79 711.87C1108.94 712.68 1106.91 713.05 1104.89 712.96C1104.33 712.93 1103.75 712.86 1103.26 712.58C1102.75 712.29 1102.38 711.81 1102.03 711.33C1100.11 708.74 1098.17 706.11 1096.86 703.16C1095.55 700.21 1094.89 696.86 1095.64 693.71C1096.21 691.36 1097.53 689.25 1099.13 687.44C1100.73 685.63 1102.62 684.1 1104.49 682.57C1107.74 679.94 1113.09 679.73 1116.74 681.75Z" /><path class="shp7" d="M1063.51 795.47L1067.06 780.18L1052.54 769.26C1050.87 781.41 1049.61 789.93 1048.77 794.81L1019.43 795.32L1013.8 796.39C1039.88 807.31 1053.75 811.09 1055.41 807.74C1056.11 806.33 1058.21 804.28 1060.21 801.88C1060.91 802.05 1061.48 802.19 1061.92 802.3L1062.86 798.23C1063.39 797.33 1063.83 796.41 1064.12 795.47L1063.51 795.47Z" /><path class="shp28" d="M1075.33 725.34C1062.83 730.27 1054.16 745.66 1049.32 771.51C1052.45 775.75 1057.5 778.1 1064.49 778.57C1071.47 779.04 1073.89 770.74 1071.77 753.67L1075.33 725.34Z" /><path class="shp7" d="M1097.44 712.61L1096.73 723.84L1081.41 727.03L1078.7 727.03L1079.27 713.56L1095.51 707.83L1097.44 712.61Z" /><path class="shp7" d="M1073.41 730.6C1072.95 735.63 1073.76 738.62 1075.84 739.55L1098.98 722.39C1089.4 723.33 1081.52 724.31 1075.33 725.34C1074.54 728.98 1073.9 730.74 1073.41 730.6Z" /><path class="shp6" d="M1111.79 688.17C1114.94 675.25 1112.77 666.37 1105.27 661.54C1094.02 654.28 1082.09 655.09 1073.97 659.44C1065.85 663.78 1060.98 678.94 1064.63 687.6L1091.58 679.33L1111.79 688.17Z" /><path class="shp7" d="M1016.92 785.34C1014.24 784.18 1012.27 782.98 1011.51 781.79L1010.64 779.55C1009.57 776.74 1007.94 775.51 1006.92 776.06L1006.75 776.2C1007.2 779.23 1007.62 781.98 1007.99 784.46L1005.65 784.11L1004.42 798.25L1015.54 796.75L1016.92 785.34Z" /><path class="shp11" d="M1102.07 819.4L1090.95 916.68C1083.92 972.18 1077.56 1006.1 1071.88 1018.45L1053 1018.45L1057.11 832.39L1090.4 811.47L1102.07 819.4Z" /><g ><path class="shp15" d="M1097.77 709.67C1097.55 711.85 1097.35 714.29 1097.16 717C1091.34 723.38 1080.42 721.19 1078.97 720.57C1079.03 719.21 1079.03 717.15 1078.97 714.39L1097.77 709.67Z" /></g><path class="shp18" d="M1110.95 809.99C1125.03 828.13 1130.4 851.64 1127.06 880.52C1123.73 909.4 1122.44 929.03 1123.18 939.39C1141.32 956.06 1153.17 976.42 1158.73 1000.49C1150.77 1006.04 1144.1 1009.28 1138.73 1010.21C1112.07 969.48 1097.72 946.71 1095.68 941.89C1093.64 937.08 1086.29 896.83 1073.62 821.15L1110.95 809.99Z" /><g ><path class="shp15" d="M1068.13 691.03C1069.09 693.63 1068.18 696.37 1066.09 697.14C1064 697.9 1061.54 696.41 1060.58 693.81C1059.62 691.2 1060.53 688.46 1062.62 687.7C1064.7 686.93 1067.17 688.42 1068.13 691.03Z" /></g><g ><path class="shp7" d="M1068.35 706.09C1067.75 704.96 1067.25 703.77 1066.86 702.52C1065.74 699.17 1065.24 695.64 1065.05 692.57C1065.01 691.91 1064.93 691.25 1064.83 690.6C1064.46 687.95 1064.57 685.17 1065.29 682.33C1067.59 673.18 1075.78 666.52 1085.21 666.14C1097.9 665.64 1108.03 675.99 1107.6 688.35C1108.97 687.65 1110.49 687.53 1111.79 688.17C1114.3 689.39 1115.1 692.93 1113.56 696.07C1112.03 699.21 1108.75 700.75 1106.24 699.53C1105.89 699.36 1105.58 699.14 1105.3 698.89C1103.87 709.37 1094.97 717.19 1084.64 716.66C1079.59 716.4 1075.09 714.19 1071.75 710.77C1071.53 710.56 1071.3 710.33 1071.05 710.06C1069.98 708.87 1069.09 707.52 1068.35 706.09Z" /></g><path class="shp6" d="M1087.68 691.3C1087.62 692.42 1088.48 693.36 1089.59 693.42C1090.71 693.48 1091.66 692.62 1091.71 691.51C1091.77 690.39 1090.91 689.44 1089.8 689.39C1088.69 689.33 1087.74 690.19 1087.68 691.3Z" /><path class="shp6" d="M1069.75 691.3C1069.7 692.42 1070.55 693.36 1071.67 693.42C1072.78 693.48 1073.73 692.62 1073.79 691.51C1073.84 690.39 1072.99 689.44 1071.87 689.39C1070.76 689.33 1069.81 690.19 1069.75 691.3Z" /><path class="shp6" d="M1085.98 687.94C1086.9 687.45 1087.85 687.09 1088.82 686.85C1089.8 686.61 1090.79 686.53 1091.77 686.62C1092.26 686.66 1092.74 686.76 1093.21 686.89C1093.45 686.95 1093.68 687.04 1093.92 687.12C1094.03 687.16 1094.15 687.22 1094.26 687.26C1094.38 687.31 1094.49 687.36 1094.6 687.41C1095.51 687.84 1096.36 688.41 1097.19 689.04C1096.57 688.2 1095.78 687.47 1094.87 686.92C1094.42 686.64 1093.93 686.41 1093.42 686.24C1092.91 686.07 1092.37 685.95 1091.84 685.9C1090.76 685.8 1089.67 685.95 1088.66 686.31C1088.16 686.48 1087.68 686.72 1087.23 686.98C1086.78 687.26 1086.35 687.56 1085.98 687.94Z" /><path class="shp6" d="M1077.85 687.94C1077.48 687.56 1077.05 687.26 1076.6 686.98C1076.14 686.72 1075.67 686.48 1075.16 686.31C1074.16 685.95 1073.07 685.8 1071.99 685.9C1071.45 685.95 1070.92 686.07 1070.41 686.24C1069.9 686.41 1069.41 686.64 1068.96 686.92C1068.04 687.47 1067.26 688.2 1066.64 689.04C1067.47 688.41 1068.32 687.84 1069.22 687.41C1069.33 687.36 1069.45 687.31 1069.57 687.26C1069.68 687.22 1069.79 687.16 1069.91 687.12C1070.14 687.04 1070.37 686.95 1070.61 686.89C1071.09 686.76 1071.57 686.66 1072.06 686.62C1073.04 686.53 1074.03 686.61 1075 686.85C1075.97 687.09 1076.93 687.45 1077.85 687.94Z" /><path class="shp13" d="M1123.98 755.79C1123.49 755.28 1123.03 754.71 1122.61 754.13C1122.19 753.54 1121.79 752.93 1121.44 752.3C1121.08 751.67 1120.76 751.02 1120.49 750.34C1120.2 749.67 1119.98 748.98 1119.76 748.27C1119.86 749 1120 749.73 1120.23 750.44C1120.33 750.79 1120.47 751.14 1120.6 751.49C1120.75 751.83 1120.89 752.17 1121.06 752.5C1121.39 753.17 1121.77 753.81 1122.2 754.42C1122.54 754.91 1122.91 755.38 1123.32 755.82C1122.95 755.9 1122.56 755.95 1122.18 755.97C1121.65 755.99 1121.11 755.97 1120.58 755.89C1120.32 755.86 1120.06 755.8 1119.8 755.74C1119.54 755.67 1119.28 755.6 1119.03 755.5C1118.51 755.33 1118.04 755.07 1117.56 754.8C1117.98 755.15 1118.43 755.48 1118.94 755.71C1119.44 755.96 1119.97 756.14 1120.52 756.25C1121.07 756.37 1121.63 756.43 1122.19 756.42C1122.76 756.41 1123.31 756.36 1123.88 756.21L1124.28 756.1L1123.98 755.79Z" /><path class="shp15" d="M1080.21 690.37C1079.65 691.29 1079.16 692.25 1078.72 693.23C1078.28 694.21 1077.9 695.22 1077.59 696.27C1077.46 696.8 1077.33 697.33 1077.29 697.91C1077.29 698.05 1077.29 698.2 1077.31 698.36C1077.32 698.44 1077.34 698.52 1077.35 698.6C1077.39 698.69 1077.41 698.78 1077.47 698.86C1077.5 698.91 1077.54 698.95 1077.57 698.99L1077.66 699.07C1077.71 699.11 1077.77 699.16 1077.83 699.21C1077.94 699.29 1078.06 699.37 1078.18 699.44C1078.66 699.74 1079.17 699.94 1079.68 700.12C1080.19 700.3 1080.71 700.44 1081.25 700.54C1080.28 700.07 1079.3 699.62 1078.47 699.02C1078.36 698.94 1078.27 698.86 1078.18 698.78L1078.04 698.65L1077.98 698.59C1077.98 698.58 1077.97 698.57 1077.96 698.56C1077.9 698.45 1077.89 698.18 1077.91 697.95C1077.96 697.46 1078.09 696.95 1078.23 696.45C1078.51 695.43 1078.86 694.43 1079.2 693.42C1079.54 692.41 1079.89 691.4 1080.21 690.37Z" /><path class="shp16" d="M1120.32 787.84C1120.32 787.84 1120.32 787.84 1120.32 787.83C1122.16 777.63 1123.47 767.05 1124.26 756.1C1124.41 752.31 1124.37 748.96 1124.17 745.99C1121.61 743.91 1118.55 741.39 1114.98 738.44L1105.83 722.86C1105.84 722.85 1105.84 722.85 1105.84 722.85C1103.52 722.63 1101.14 722.47 1098.68 722.38L1075.84 739.55L1075.33 725.34C1075.22 725.42 1075.1 725.51 1074.99 725.6C1065.13 733.66 1058.72 745.3 1057.34 758.11C1056.37 767.14 1056.49 776.77 1057.03 785.38L1057.03 785.38C1054.43 818.59 1052.5 837.85 1051.25 843.16C1085.76 846.6 1112.22 846.6 1130.64 843.16C1123.59 820.75 1120.15 802.31 1120.32 787.84Z" /><g ><path class="shp6" d="M1053.95 827.22L1014.36 829.61C1011.86 829.76 1009.08 828.15 1008.16 826.03L987.34 777.84C986.42 775.72 987.7 773.87 990.2 773.72L1029.79 771.33C1032.29 771.18 1035.06 772.78 1035.98 774.91L1056.81 823.09C1057.73 825.22 1056.45 827.07 1053.95 827.22Z" /><path class="shp29" d="M1018.07 774.46L1004.59 775.27C1003.51 775.34 1002.31 774.64 1001.91 773.72L1001.54 772.86C1001.14 771.94 1001.7 771.14 1002.78 771.08L1016.25 770.27C1017.33 770.2 1018.53 770.89 1018.93 771.81L1019.3 772.68C1019.7 773.6 1019.15 774.39 1018.07 774.46Z" /></g><path class="shp7" d="M1003.33 814.91L1003.16 814.98C1002.17 815.42 1001 815.04 1000.45 814.09L994.25 803.32C993.94 802.8 993.95 802.15 994.29 801.65C995.34 800.08 997.6 796.86 998.37 796.98C999.39 797.13 996.28 802.49 996.71 802.6C997.13 802.71 1001.53 799.14 1001.9 799.72C1002.24 800.24 998.36 804.39 998.54 804.71C998.72 805.04 1003.19 802.44 1003.68 802.9C1004.11 803.32 999.9 806.68 999.96 806.91L1003.33 814.91Z" /><path class="shp7" d="M1038.92 827.34C1038.97 826.59 1045.25 821.85 1044.9 821.52C1044.54 821.19 1037.53 825.38 1037.02 824.42C1036.51 823.45 1044.34 819.11 1043.62 818.5C1042.9 817.9 1034.99 822.55 1034.67 821.59C1034.4 820.79 1043.12 815.37 1045.91 813.67C1046.27 813.45 1046.23 812.91 1045.85 812.74C1039.99 809.97 1039.7 809.42 1040.15 808.84C1040.47 808.44 1046.31 809.18 1051.82 809.57L1058.5 810.21C1060.38 809.76 1116.49 796.51 1119.55 792.83C1121.62 790.34 1119.88 782.34 1114.31 768.85L1132.54 761.03C1138.1 783.16 1138.2 797.63 1132.85 804.45C1129.96 808.12 1105.29 813.24 1058.83 819.8C1058.09 820.36 1056.73 821.31 1054.73 822.66C1042.56 830.4 1043.93 829.81 1043.57 829.41C1043.22 829.02 1047.31 824.41 1046.76 824.13C1046.21 823.85 1038.88 828.09 1038.92 827.34Z" /><path class="shp16" d="M1105.83 722.86C1119.44 728.01 1130.55 740.6 1139.17 760.64C1134.94 769.98 1125.82 774.82 1111.82 775.14L1105.83 722.86Z" /><path class="shp30" d="M1139.17 760.64C1137.79 762.96 1135.97 764.97 1133.92 766.67C1131.89 768.41 1129.62 769.83 1127.23 770.97C1124.79 772.02 1122.3 772.95 1119.69 773.49C1118.41 773.82 1117.07 773.92 1115.77 774.16C1114.45 774.29 1113.12 774.35 1111.79 774.45L1112.49 774.98C1111.82 772.32 1111.06 769.71 1110.25 767.1C1109.42 764.5 1108.58 761.9 1107.55 759.37C1106.55 756.83 1105.42 754.33 1104.14 751.91C1102.81 749.54 1101.35 747.14 1099.25 745.37C1101.12 747.36 1102.42 749.76 1103.54 752.22C1104.68 754.66 1105.68 757.18 1106.55 759.74C1107.41 762.3 1108.29 764.86 1109.05 767.46C1109.81 770.06 1110.52 772.68 1111.15 775.3L1111.29 775.88L1111.84 775.83C1113.21 775.7 1114.57 775.62 1115.93 775.46C1117.28 775.2 1118.65 775.07 1119.97 774.7C1121.3 774.37 1122.63 774.04 1123.92 773.54C1125.23 773.14 1126.45 772.49 1127.7 771.92C1130.11 770.62 1132.39 769.05 1134.37 767.17C1136.31 765.26 1138.06 763.11 1139.17 760.64Z" /><path class="shp7" d="M999.65 807.04C1002.64 806.13 1004.26 805.85 1004.53 806.18C1004.92 806.69 999.63 809.54 999.65 809.41C999.67 809.32 999.67 808.53 999.65 807.04Z" /><path class="shp6" d="M1110.33 685.5L1109.82 685.44L1109.48 681.23L1107.6 677.35C1102.69 670.38 1100.15 666.81 1099.98 666.63C1099.72 666.37 1094.1 663.01 1093.76 662.83C1093.53 662.72 1090.79 663.09 1085.55 663.96C1076.33 661.97 1072.5 663.56 1074.06 668.71C1076.4 676.43 1086.5 680.46 1087.02 680.11C1085.92 678.96 1085.32 676.74 1085.2 673.46C1090.39 679.45 1097.85 684.41 1107.6 688.35C1108.62 687.57 1110.02 687.51 1111.79 688.17L1110.33 685.5Z" /><path class="shp13" d="M1075.73 703.72C1076.27 706.1 1078.58 707.87 1081.32 707.83C1084.06 707.78 1086.31 705.93 1086.76 703.53L1075.73 703.72Z" /><g ><g ><g ><path class="shp12" d="M402.73 870.99L393.4 870.99L393.4 846.3C393.4 840.08 388.34 835.02 382.12 835.02L289.07 835.02C282.85 835.02 277.79 840.08 277.79 846.3L277.79 870.99L268.47 870.99L268.47 846.3C268.47 834.94 277.71 825.7 289.07 825.7L382.12 825.7C393.48 825.7 402.73 834.94 402.73 846.3L402.73 870.99Z" /></g></g><path class="shp18" d="M285.62 868.37L260.63 868.37L260.63 866.28C260.63 863.54 262.85 861.32 265.59 861.32L280.67 861.32C283.4 861.32 285.62 863.54 285.62 866.28L285.62 868.37Z" /><path class="shp18" d="M410.56 868.37L385.57 868.37L385.57 866.28C385.57 863.54 387.79 861.32 390.53 861.32L405.6 861.32C408.34 861.32 410.56 863.54 410.56 866.28L410.56 868.37Z" /><g ><path class="shp25" d="M433.07 1039.22L233.19 1039.22C225.8 1039.22 219.8 1033.23 219.8 1025.84L219.8 881.76C219.8 874.36 225.8 868.37 233.19 868.37L433.07 868.37C440.47 868.37 446.46 874.36 446.46 881.76L446.46 1025.84C446.46 1033.23 440.47 1039.22 433.07 1039.22Z" /></g><path class="shp26" d="M289.11 1039.22L257.15 1039.22L257.15 868.37L289.11 868.37L289.11 1039.22Z" /><path class="shp26" d="M414.04 1039.22L382.09 1039.22L382.09 868.37L414.04 868.37L414.04 1039.22Z" /><path class="shp13" d="M367.56 945.35L344.04 945.35L344.04 921.84L327.15 921.84L327.15 945.35L303.64 945.35L303.64 962.24L327.15 962.24L327.15 985.75L344.04 985.75L344.04 962.24L367.56 962.24L367.56 945.35Z" /></g><path class="shp6" d="M408.87 472.26C419.64 468.46 428.51 462.6 435.48 454.69C440.64 461.8 444.99 465.85 448.53 466.87C448.85 455.55 443.19 449.12 431.54 447.56C414.08 445.23 405 458.83 408.87 472.26Z" /><path class="shp4" d="M1224.94 230.8C1219.44 206.97 1209.85 184.28 1197.04 163.54C1179.06 162.95 1161.05 163.05 1143.08 163.82C1133.05 164.26 1122.8 164.87 1113.19 161.98C1103.59 159.09 1094.6 151.83 1092.74 141.98C1091.64 136.13 1092.82 129.21 1088.62 125C1086.41 122.77 1083.2 121.93 1080.15 121.17C1066.29 117.74 1052.2 114.28 1037.94 114.93C1008.35 116.28 975.88 134.46 951.46 117.69C940.8 110.37 934.71 96.92 936.23 84.09C937.76 71.25 946.84 59.6 958.91 54.99C979.24 47.22 1004.67 58.3 1023.99 51.77C957.07 44.19 888.9 64.86 828.29 95.1C821.25 98.61 814.29 102.25 807.39 105.99C808.08 115.42 815.25 124.04 823.89 128.46C833.87 133.55 845.43 134.28 856.62 134.92C869.14 135.63 881.65 136.33 894.16 137.04C898.48 137.29 903.31 137.78 906.06 141.11C909.64 145.44 907.73 151.85 908.02 157.46C908.56 167.65 917.2 175.97 926.82 179.36C936.45 182.76 946.95 182.25 957.14 181.7C976.4 180.66 995.65 179.62 1014.9 178.58C1021.27 178.23 1028.06 177.98 1033.58 181.18C1037.76 183.59 1040.65 187.67 1043.67 191.44C1069.64 223.82 1112.21 238.44 1153.47 243.12C1178.17 245.92 1203.07 245.74 1227.95 245.95C1227.09 240.88 1226.1 235.82 1224.94 230.8Z" /><path class="shp21" d="M543.21 434.62L530.75 411.76L518.3 434.62C499.95 468.72 493.72 493.04 499.62 507.58C499.71 507.8 499.8 508.02 499.89 508.23C511.49 535.46 550.02 535.46 561.62 508.23C561.71 508.02 561.8 507.8 561.89 507.58C567.79 493.04 561.56 468.72 543.21 434.62Z" /><g ><path class="shp20" d="M530.75 411.76L518.3 434.62C503.02 463.01 496.29 485.21 498.09 501.23C513.94 516.67 542.58 512.98 552.31 490.15C552.4 489.94 552.49 489.72 552.57 489.5C558.92 473.85 546.55 443.11 539.05 426.98L530.75 411.76Z" /></g><path class="shp13" d="M577.61 444.04C575.91 445.48 574.28 446.97 572.68 448.49C569.5 451.54 566.48 454.71 563.57 457.97C560.67 461.23 557.89 464.6 555.22 468.04C553.41 470.38 551.65 472.76 549.94 475.18L548.66 474.17C547.82 473.51 546.96 472.87 546.1 472.22C545.25 471.58 544.37 470.96 543.5 470.32C541.73 469.08 539.95 467.86 538.11 466.7C536.27 465.54 534.4 464.41 532.4 463.4C533.48 465.36 534.67 467.19 535.9 468.99C537.12 470.79 538.4 472.53 539.7 474.25C540.37 475.09 541.02 475.95 541.69 476.79C542.37 477.62 543.04 478.46 543.73 479.28L545.81 481.72L547.94 484.12L550.78 487.32L554.04 483.69C556.96 480.43 559.74 477.08 562.43 473.65C565.11 470.21 567.69 466.69 570.14 463.08C572.58 459.46 574.91 455.75 577.08 451.91C578.16 449.99 579.2 448.04 580.18 446.04C581.16 444.04 582.11 442.02 582.91 439.88C581.03 441.18 579.3 442.6 577.61 444.04Z" /><path class="shp19" d="M499.02 384.36C497.26 376.7 490.4 370.98 482.21 370.98C480.71 370.98 479.25 371.18 477.86 371.54C473.81 362.89 465.04 356.9 454.86 356.9C452.23 356.9 449.69 357.3 447.3 358.05C441.83 348.98 431.87 342.91 420.5 342.91C406.97 342.91 395.45 351.5 391.08 363.51C387.99 361.79 384.43 360.81 380.65 360.81C368.79 360.81 359.17 370.42 359.17 382.27C359.17 382.98 359.21 383.67 359.28 384.36L499.02 384.36Z" /><path class="shp19" d="M768.66 247.87C767.23 241.64 761.66 237 754.99 237C753.77 237 752.58 237.15 751.45 237.45C748.16 230.42 741.03 225.54 732.75 225.54C730.61 225.54 728.54 225.87 726.6 226.47C722.15 219.1 714.05 214.16 704.8 214.16C693.8 214.16 684.43 221.15 680.88 230.92C678.36 229.52 675.47 228.72 672.39 228.72C662.74 228.72 654.93 236.54 654.93 246.18C654.93 246.75 654.96 247.31 655.01 247.87L768.66 247.87Z" /><path class="shp1" d="M146.24 1027.67C148.42 1029.78 150.24 1033.95 152.16 1038.37C153.73 1041.95 155.41 1045.8 157.65 1049.59L214.61 1049.59C213.06 1048.63 211.48 1047.72 209.85 1046.89C206.17 1045.01 202.44 1043.55 199.14 1042.27C194.27 1040.37 189.67 1038.58 187.32 1036.22C185.17 1034.08 183.37 1029.95 181.47 1025.58C178.67 1019.19 175.2 1011.22 168.51 1004.73C159.47 995.97 147.98 993.04 138.75 990.69C132.29 989.04 126.19 987.49 123.34 984.62C121.8 983.08 120.25 980.19 118.61 977.13C117.58 975.2 116.51 973.21 115.24 971.13C104.77 953.97 86.64 941.93 66.76 938.93C65.63 938.76 64.58 938.63 63.56 938.5C61.93 938.29 46.86 935.22 41.84 938.67C32.4 945.16 32.73 959.33 42.59 965.16C43.73 965.83 44.92 966.45 46.19 967C51.14 969.16 55.83 969.75 59.6 970.22C60.46 970.32 61.26 970.42 61.98 970.53C72.47 972.12 82.42 978.73 87.95 987.78C88.76 989.1 89.57 990.63 90.44 992.24C90.71 992.75 90.99 993.27 91.28 993.81L105.36 994.28L95.2 1000.4C96.73 1002.69 98.52 1005 100.67 1007.16C109.75 1016.28 121.45 1019.27 130.85 1021.66C137.27 1023.3 143.32 1024.84 146.24 1027.67Z" /><path class="shp3" d="M154.22 978.37C156.43 981.63 157.66 987.42 158.95 993.56C160.87 1002.7 163.05 1013.06 169.54 1022.93C176.72 1033.85 186.93 1040.47 195.13 1045.8C197.13 1047.1 199.07 1048.35 200.85 1049.59L253.74 1049.59C248.3 1038.01 240.25 1027.66 230.22 1019.62C226.02 1016.25 221.64 1013.41 217.78 1010.9C212.08 1007.21 206.69 1003.71 204.31 1000.09C202.14 996.79 200.94 991.06 199.66 984.99C197.79 976.1 195.46 965.04 188.64 955C179.44 941.45 165.57 934.7 154.42 929.27C146.63 925.47 139.26 921.88 136.38 917.47C134.83 915.1 133.62 911.01 132.33 906.68C131.52 903.95 130.69 901.13 129.62 898.15C124.71 884.44 116.35 872.13 105.68 862.35L96.15 877.38L100.35 857.82C93.11 852.14 85.01 847.54 76.32 844.34C74.93 843.82 73.63 843.38 72.36 842.95C70.33 842.26 51.94 834.37 44.63 837.45C34.56 841.68 30.11 852.55 32.78 862.01L51.71 863.61L37.34 870.13C37.75 870.56 38.16 870.99 38.61 871.4C39.88 872.55 41.24 873.66 42.71 874.69C48.45 878.75 54.28 880.73 58.96 882.33C60.02 882.69 61.02 883.03 61.9 883.35C74.86 888.14 85.8 899.18 90.45 912.18C91.13 914.07 91.77 916.23 92.45 918.51C93.5 922.07 94.7 926.11 96.41 930.29L117.84 934.42L99.94 937.58C100.45 938.47 100.98 939.35 101.56 940.23C110.72 954.24 124.84 961.13 136.2 966.66C143.94 970.43 151.25 973.99 154.22 978.37Z" /><path class="shp2" d="M138.2 856.62C137.79 863.43 137.3 871.72 138.82 880.55C149.83 886.75 171.34 898.86 168.88 897.56C166.59 896.33 150.73 892.66 141.45 890.56C146.98 906.18 157.97 917.55 167.02 926.9C174.01 934.12 180.62 940.95 182.14 946.94C183.26 951.39 182.29 958.24 181.27 965.49C179.73 976.29 178 988.53 181.18 1001.95C184.71 1016.8 193.27 1028.14 200.15 1037.25C202.96 1040.96 205.6 1044.47 207.6 1047.75C207.97 1048.36 208.32 1048.97 208.66 1049.59L260.39 1049.59C258 1040.08 254.22 1030.91 249.1 1022.5C245.84 1017.14 242.16 1012.27 238.92 1007.98C234.14 1001.65 229.62 995.66 228.45 990.74C227.39 986.26 228.35 979.48 229.37 972.31C230.86 961.81 232.71 948.74 229.23 935.01C224.53 916.47 212 903.52 201.93 893.12C194.89 885.84 188.24 878.97 186.84 872.99C186.08 869.76 186.38 864.79 186.69 859.53C186.89 856.21 187.1 852.78 187.12 849.09C187.24 820.53 175.15 792.43 154.52 772.77L145.02 776.96L149.71 768.47C148.52 767.47 147.38 766.56 146.28 765.67C144.33 764.11 127.29 748.12 118.04 748.58C100.66 749.44 89.79 768.05 97.9 783.45C98.83 785.22 99.88 786.98 101.08 788.7C105.76 795.44 111.37 799.94 115.87 803.55C116.89 804.37 117.85 805.14 118.69 805.85C131 816.27 138.61 832.75 138.53 848.87C138.52 851.22 138.37 853.84 138.2 856.62Z" /><g ><path class="shp31" d="M1334.08 1049.59L116.83 1049.59L116.83 1039.18L1334.08 1039.18L1334.08 1049.59Z" /></g><path class="shp19" d="M1293.93 487.24C1291.97 487.61 1290.05 488.09 1288.17 488.68C1276.83 469.91 1256.24 457.36 1232.71 457.36C1204.73 457.36 1180.89 475.12 1171.85 499.99C1165.46 496.42 1158.1 494.39 1150.26 494.39C1125.72 494.39 1105.83 514.27 1105.83 538.8C1105.83 540.25 1105.91 541.69 1106.05 543.11L1324.63 543.11C1316 523.76 1304.73 505.61 1293.93 487.24Z" /><g ><path fill-rule="evenodd" class="shp2" d="M1181.1 357.18L1156.63 357.18L1156.63 337.32L1136.76 337.32L1136.76 312.85L1156.63 312.85L1156.63 292.99L1181.1 292.99L1181.1 312.85L1200.96 312.85L1200.96 337.32L1181.1 337.32L1181.1 357.18ZM1159.91 353.89L1177.81 353.89L1177.81 334.03L1197.68 334.03L1197.68 316.13L1177.81 316.13L1177.81 296.27L1159.91 296.27L1159.91 316.13L1140.05 316.13L1140.05 334.03L1159.91 334.03L1159.91 353.89Z" /></g><g ><path fill-rule="evenodd" class="shp2" d="M1280.29 685.24L1264.3 685.24L1264.3 672.26L1251.31 672.26L1251.31 656.28L1264.3 656.28L1264.3 643.3L1280.29 643.3L1280.29 656.28L1293.27 656.28L1293.27 672.26L1280.29 672.26L1280.29 685.24ZM1266.44 683.1L1278.14 683.1L1278.14 670.12L1291.12 670.12L1291.12 658.42L1278.14 658.42L1278.14 645.44L1266.44 645.44L1266.44 658.42L1253.46 658.42L1253.46 670.12L1266.44 670.12L1266.44 683.1Z" /></g><g ><path fill-rule="evenodd" class="shp2" d="M295.46 524.37L282.75 524.37L282.75 514.06L272.44 514.06L272.44 501.36L282.75 501.36L282.75 491.05L295.46 491.05L295.46 501.36L305.77 501.36L305.77 514.06L295.46 514.06L295.46 524.37ZM284.46 522.67L293.75 522.67L293.75 512.36L304.07 512.36L304.07 503.06L293.75 503.06L293.75 492.75L284.46 492.75L284.46 503.06L274.15 503.06L274.15 512.36L284.46 512.36L284.46 522.67Z" /></g><g ><path fill-rule="evenodd" class="shp2" d="M261.36 767.48L252.93 767.48L252.93 760.64L246.09 760.64L246.09 752.21L252.93 752.21L252.93 745.37L261.36 745.37L261.36 752.21L268.2 752.21L268.2 760.64L261.36 760.64L261.36 767.48ZM254.07 766.35L260.23 766.35L260.23 759.51L267.07 759.51L267.07 753.34L260.23 753.34L260.23 746.5L254.07 746.5L254.07 753.34L247.22 753.34L247.22 759.51L254.07 759.51L254.07 766.35Z" /></g><g ><path fill-rule="evenodd" class="shp2" d="M863.65 191.12L850.94 191.12L850.94 180.81L840.63 180.81L840.63 168.11L850.94 168.11L850.94 157.8L863.65 157.8L863.65 168.11L873.96 168.11L873.96 180.81L863.65 180.81L863.65 191.12ZM852.65 189.42L861.94 189.42L861.94 179.11L872.25 179.11L872.25 169.82L861.94 169.82L861.94 159.5L852.65 159.5L852.65 169.82L842.34 169.82L842.34 179.11L852.65 179.11L852.65 189.42Z" /></g><g ><g ><path fill-rule="evenodd" class="shp1" d="M1136.34 596.88C1130.41 596.88 1125.58 592.06 1125.58 586.13C1125.58 580.2 1130.41 575.37 1136.34 575.37C1142.27 575.37 1147.09 580.2 1147.09 586.13C1147.09 592.06 1142.27 596.88 1136.34 596.88ZM1136.34 578.1C1131.91 578.1 1128.31 581.7 1128.31 586.13C1128.31 590.55 1131.91 594.15 1136.34 594.15C1140.77 594.15 1144.37 590.55 1144.37 586.13C1144.37 581.7 1140.77 578.1 1136.34 578.1Z" /></g></g><g ><g ><path fill-rule="evenodd" class="shp1" d="M1024.15 112.78C1018.22 112.78 1013.4 107.96 1013.4 102.03C1013.4 96.1 1018.22 91.27 1024.15 91.27C1030.08 91.27 1034.91 96.1 1034.91 102.03C1034.91 107.96 1030.08 112.78 1024.15 112.78ZM1024.15 94C1019.73 94 1016.12 97.6 1016.12 102.03C1016.12 106.45 1019.73 110.05 1024.15 110.05C1028.58 110.05 1032.18 106.45 1032.18 102.03C1032.18 97.6 1028.58 94 1024.15 94Z" /></g></g><g ><g ><path fill-rule="evenodd" class="shp3" d="M648.08 304.61C642.31 304.61 637.61 299.92 637.61 294.14C637.61 288.37 642.31 283.68 648.08 283.68C653.86 283.68 658.55 288.37 658.55 294.14C658.55 299.92 653.86 304.61 648.08 304.61ZM648.08 286.33C643.77 286.33 640.27 289.84 640.27 294.14C640.27 298.45 643.77 301.96 648.08 301.96C652.39 301.96 655.9 298.45 655.9 294.14C655.9 289.84 652.39 286.33 648.08 286.33Z" /></g></g><g ><path fill-rule="evenodd" class="shp2" d="M165.53 725.22C158.77 725.22 153.28 719.72 153.28 712.97C153.28 706.22 158.77 700.72 165.53 700.72C172.28 700.72 177.77 706.22 177.77 712.97C177.77 719.72 172.28 725.22 165.53 725.22ZM165.53 703.83C160.48 703.83 156.38 707.93 156.38 712.97C156.38 718.01 160.48 722.11 165.53 722.11C170.57 722.11 174.67 718.01 174.67 712.97C174.67 707.93 170.57 703.83 165.53 703.83Z" /></g><g ><path class="shp13" d="M1038.27 1039.18L1068.94 1039.09C1069.89 1039.09 1070.65 1038.32 1070.65 1037.37C1070.65 1036.42 1069.88 1035.65 1068.93 1035.66L1038.26 1035.75C1037.31 1035.75 1036.54 1036.52 1036.55 1037.47C1036.55 1038.41 1037.32 1039.18 1038.27 1039.18Z" /><path class="shp6" d="M1069.05 1025.23L1070.21 1034.77C1070.35 1035.95 1069.7 1037.02 1068.83 1037.02L1038.78 1037.11C1038 1037.11 1037.23 1036.63 1036.82 1035.71C1036.39 1034.77 1036.3 1033.36 1037.64 1031.45C1040.3 1027.68 1048.98 1026.71 1053.34 1023.53C1053.43 1023.47 1053.53 1023.43 1053.64 1023.43L1067.47 1023.39C1068.25 1023.39 1068.92 1024.17 1069.05 1025.23Z" /><g ><path class="shp13" d="M1055.62 1028.97C1055.83 1028.83 1055.91 1028.47 1055.78 1028.19C1055.19 1026.88 1053.34 1023.71 1049.59 1024.37C1049.37 1024.41 1049.22 1024.7 1049.26 1024.99L1049.26 1025C1049.3 1025.29 1049.49 1025.48 1049.7 1025.44C1053.07 1024.86 1054.64 1027.66 1055.12 1028.75C1055.23 1028.99 1055.44 1029.08 1055.62 1028.97Z" /></g><g ><path class="shp13" d="M1052.5 1030.2C1052.72 1030.07 1052.79 1029.7 1052.67 1029.43C1052.07 1028.12 1050.22 1024.94 1046.47 1025.61C1046.25 1025.65 1046.11 1025.93 1046.14 1026.23L1046.15 1026.24C1046.18 1026.53 1046.38 1026.72 1046.59 1026.68C1049.95 1026.1 1051.52 1028.9 1052.01 1029.99C1052.11 1030.23 1052.32 1030.32 1052.5 1030.2Z" /></g><g ><path class="shp13" d="M1049.6 1031.36C1049.82 1031.23 1049.89 1030.86 1049.77 1030.58C1049.17 1029.28 1047.32 1026.1 1043.57 1026.76C1043.35 1026.8 1043.21 1027.09 1043.24 1027.39L1043.25 1027.4C1043.28 1027.68 1043.48 1027.87 1043.69 1027.83C1047.05 1027.25 1048.63 1030.05 1049.11 1031.15C1049.21 1031.38 1049.42 1031.47 1049.6 1031.36Z" /></g></g><g ><path class="shp11" d="M469.58 734.75L446.92 714.09C446.22 713.45 446.17 712.37 446.81 711.67C447.45 710.97 448.53 710.92 449.23 711.55L471.89 732.22C472.59 732.86 472.64 733.94 472 734.64C471.36 735.34 470.28 735.39 469.58 734.75Z" /><g ><path class="shp12" d="M456.14 703.75L448.88 710.04C447.98 710.81 447.75 712.05 448.38 712.63L470.59 732.88C471.16 733.4 472.06 733.56 472.98 733.16C473.93 732.75 474.94 731.76 475.23 729.45C475.8 724.88 470.02 718.33 468.92 713.04C468.9 712.93 468.85 712.84 468.77 712.76L458.55 703.45C457.97 702.92 456.95 703.05 456.14 703.75Z" /></g><g ><path class="shp13" d="M463.59 715.54C463.52 715.29 463.7 714.97 463.98 714.85C465.3 714.28 468.81 713.17 471.14 716.18C471.28 716.36 471.19 716.67 470.96 716.86L470.96 716.87C470.74 717.06 470.46 717.07 470.33 716.9C468.24 714.21 465.19 715.22 464.09 715.71C463.86 715.82 463.65 715.74 463.59 715.54Z" /></g><g ><path class="shp13" d="M465.06 718.55C464.99 718.31 465.18 717.98 465.46 717.86C466.78 717.29 470.29 716.18 472.62 719.19C472.75 719.37 472.67 719.68 472.44 719.87L472.43 719.88C472.21 720.07 471.94 720.08 471.81 719.91C469.71 717.22 466.66 718.24 465.57 718.72C465.34 718.83 465.12 718.75 465.06 718.55Z" /></g><g ><path class="shp13" d="M466.44 721.35C466.37 721.11 466.55 720.78 466.83 720.66C468.15 720.09 471.66 718.99 473.99 722C474.13 722.17 474.04 722.48 473.81 722.68L473.81 722.68C473.59 722.87 473.31 722.88 473.18 722.71C471.09 720.02 468.04 721.04 466.94 721.53C466.71 721.63 466.49 721.56 466.44 721.35Z" /></g></g></g></g></svg>