<svg version="1.2" baseProfile="tiny-ps" xmlns="http://www.w3.org/2000/svg" viewBox="0 0 827 744" width="827" height="744"><title>blood donation01-ai</title><defs><clipPath clipPathUnits="userSpaceOnUse" id="cp1"><path d="M-270 -102L1010 -102L1010 860.29L-270 860.29L-270 -102Z" /></clipPath><linearGradient id="grd1" gradientUnits="userSpaceOnUse"  x1="-376.422" y1="-42.663" x2="-433.031" y2="301.062"><stop offset="0" stop-color="#f4f6f6"  /><stop offset="1" stop-color="#a1abaa"  /></linearGradient><linearGradient id="grd2" gradientUnits="userSpaceOnUse"  x1="389.418" y1="514.516" x2="424.575" y2="532.108"><stop offset="0" stop-color="#ffb33a"  /><stop offset="1" stop-color="#ff524a"  /></linearGradient><linearGradient id="grd3" gradientUnits="userSpaceOnUse"  x1="663.771" y1="-45.982" x2="564.805" y2="-79.517"><stop offset="0" stop-color="#dde1e0"  /><stop offset="1" stop-color="#a7b0af"  /></linearGradient><linearGradient id="grd4" gradientUnits="userSpaceOnUse"  x1="602.332" y1="267.599" x2="553.358" y2="247.17"><stop offset="0" stop-color="#95dfdf"  /><stop offset="1" stop-color="#29a1af"  /></linearGradient><linearGradient id="grd5" gradientUnits="userSpaceOnUse"  x1="703.344" y1="516.937" x2="703.344" y2="489.32"><stop offset="0" stop-color="#ffb33a"  /><stop offset="1" stop-color="#ff524a"  /></linearGradient><linearGradient id="grd6" gradientUnits="userSpaceOnUse"  x1="326.411" y1="18.709" x2="184.978" y2="197.765"><stop offset="0" stop-color="#ffb33a"  /><stop offset="1" stop-color="#ff524a"  /></linearGradient><linearGradient id="grd7" gradientUnits="userSpaceOnUse"  x1="634.914" y1="189.462" x2="585.924" y2="169.027"><stop offset="0" stop-color="#95dfdf"  /><stop offset="1" stop-color="#29a1af"  /></linearGradient><linearGradient id="grd8" gradientUnits="userSpaceOnUse"  x1="883.453" y1="482.518" x2="935.403" y2="393.934"><stop offset="0" stop-color="#208992"  /><stop offset="1" stop-color="#2fb6c6"  /></linearGradient><linearGradient id="grd9" gradientUnits="userSpaceOnUse"  x1="860.641" y1="568.658" x2="920.085" y2="471.402"><stop offset="0" stop-color="#208992"  /><stop offset="1" stop-color="#2fb6c6"  /></linearGradient><linearGradient id="grd10" gradientUnits="userSpaceOnUse"  x1="450.717" y1="450.75" x2="450.717" y2="546.566"><stop offset="0" stop-color="#2fb6c6"  /><stop offset="1" stop-color="#208992"  /></linearGradient><linearGradient id="grd11" gradientUnits="userSpaceOnUse"  x1="219.378" y1="306.735" x2="176.992" y2="520.725"><stop offset="0" stop-color="#ffb33a"  /><stop offset="1" stop-color="#ff524a"  /></linearGradient><linearGradient id="grd12" gradientUnits="userSpaceOnUse"  x1="591.494" y1="747.898" x2="619.407" y2="746.841"><stop offset="0" stop-color="#3b464f"  /><stop offset="1" stop-color="#171f2b"  /></linearGradient><linearGradient id="grd13" gradientUnits="userSpaceOnUse"  x1="524.494" y1="766.461" x2="556.164" y2="700.436"><stop offset="0" stop-color="#899493"  /><stop offset="1" stop-color="#515959"  /></linearGradient><linearGradient id="grd14" gradientUnits="userSpaceOnUse"  x1="660.863" y1="635.712" x2="707.599" y2="667.871"><stop offset="0" stop-color="#ffb33a"  /><stop offset="1" stop-color="#ff524a"  /></linearGradient><linearGradient id="grd15" gradientUnits="userSpaceOnUse"  x1="507.845" y1="509.781" x2="507.845" y2="581.324"><stop offset="0" stop-color="#95dfdf"  /><stop offset="1" stop-color="#41c2c1"  /></linearGradient><linearGradient id="grd16" gradientUnits="userSpaceOnUse"  x1="218.236" y1="303.842" x2="175.937" y2="517.393"><stop offset="0" stop-color="#ffb33a"  /><stop offset="1" stop-color="#ff524a"  /></linearGradient><linearGradient id="grd17" gradientUnits="userSpaceOnUse"  x1="307.455" y1="718.646" x2="326.876" y2="743.458"><stop offset="0" stop-color="#ffb33a"  /><stop offset="1" stop-color="#ff524a"  /></linearGradient><linearGradient id="grd18" gradientUnits="userSpaceOnUse"  x1="647.863" y1="741.605" x2="693.14" y2="738.551"><stop offset="0" stop-color="#3b464f"  /><stop offset="1" stop-color="#171f2b"  /></linearGradient><linearGradient id="grd19" gradientUnits="userSpaceOnUse"  x1="351.329" y1="282.386" x2="364.17" y2="309.749"><stop offset="0" stop-color="#bfecee"  /><stop offset="1" stop-color="#95dfdf"  /></linearGradient><linearGradient id="grd20" gradientUnits="userSpaceOnUse"  x1="431.682" y1="277.386" x2="480.216" y2="318.765"><stop offset="0" stop-color="#ffb33a"  /><stop offset="1" stop-color="#ff524a"  /></linearGradient><linearGradient id="grd21" gradientUnits="userSpaceOnUse"  x1="249.294" y1="447.256" x2="279.498" y2="477.395"><stop offset="0" stop-color="#ffb33a"  /><stop offset="1" stop-color="#ff524a"  /></linearGradient><linearGradient id="grd22" gradientUnits="userSpaceOnUse"  x1="384.938" y1="780.604" x2="420.738" y2="750.214"><stop offset="0" stop-color="#899493"  /><stop offset="1" stop-color="#515959"  /></linearGradient><linearGradient id="grd23" gradientUnits="userSpaceOnUse"  x1="213.768" y1="704.717" x2="232.045" y2="733.989"><stop offset="0" stop-color="#ffb33a"  /><stop offset="1" stop-color="#ff524a"  /></linearGradient><linearGradient id="grd24" gradientUnits="userSpaceOnUse"  x1="151.657" y1="876.275" x2="282.699" y2="936.216"><stop offset="0" stop-color="#2fb6c6"  /><stop offset="1" stop-color="#165d68"  /></linearGradient><linearGradient id="grd25" gradientUnits="userSpaceOnUse"  x1="385.057" y1="73.437" x2="385.057" y2="121.429"><stop offset="0" stop-color="#3b464f"  /><stop offset="1" stop-color="#171f2b"  /></linearGradient><linearGradient id="grd26" gradientUnits="userSpaceOnUse"  x1="355.103" y1="236.103" x2="350.389" y2="230.751"><stop offset="0" stop-color="#af3836"  /><stop offset="1" stop-color="#ff524a"  /></linearGradient><linearGradient id="grd27" gradientUnits="userSpaceOnUse"  x1="374.81" y1="175.006" x2="366.05" y2="165.059"><stop offset="0" stop-color="#af3836"  /><stop offset="1" stop-color="#ff524a"  /></linearGradient><linearGradient id="grd28" gradientUnits="userSpaceOnUse"  x1="374.81" y1="175.006" x2="366.05" y2="165.059"><stop offset="0" stop-color="#af3836"  /><stop offset="1" stop-color="#ff524a"  /></linearGradient><linearGradient id="grd29" gradientUnits="userSpaceOnUse"  x1="407.542" y1="103.12" x2="395.797" y2="89.784"><stop offset="0" stop-color="#af3836"  /><stop offset="1" stop-color="#ff524a"  /></linearGradient><linearGradient id="grd30" gradientUnits="userSpaceOnUse"  x1="384.032" y1="16.132" x2="368.825" y2="-1.136"><stop offset="0" stop-color="#af3836"  /><stop offset="1" stop-color="#ff524a"  /></linearGradient><linearGradient id="grd31" gradientUnits="userSpaceOnUse"  x1="-126.018" y1="414.136" x2="-131.707" y2="530.964"><stop offset="0" stop-color="#ffb33a"  /><stop offset="1" stop-color="#8a1f50"  /></linearGradient><linearGradient id="grd32" gradientUnits="userSpaceOnUse"  x1="-15.494" y1="445.156" x2="-41.19" y2="529.703"><stop offset="0" stop-color="#ffb33a"  /><stop offset="1" stop-color="#ff524a"  /></linearGradient><linearGradient id="grd33" gradientUnits="userSpaceOnUse"  x1="148.94" y1="78.221" x2="135.48" y2="110.137"><stop offset="0" stop-color="#3b464f"  /><stop offset="1" stop-color="#171f2b"  /></linearGradient><linearGradient id="grd34" gradientUnits="userSpaceOnUse"  x1="-56.774" y1="551.812" x2="-56.774" y2="619.892"><stop offset="0" stop-color="#ffb33a"  /><stop offset="1" stop-color="#ff524a"  /></linearGradient><linearGradient id="grd35" gradientUnits="userSpaceOnUse"  x1="291.014" y1="552.102" x2="321.54" y2="501.687"><stop offset="0" stop-color="#ffb33a"  /><stop offset="1" stop-color="#2fb6c6"  /></linearGradient><linearGradient id="grd36" gradientUnits="userSpaceOnUse"  x1="235.365" y1="621.767" x2="299.219" y2="548.642"><stop offset="0" stop-color="#ffb33a"  /><stop offset="1" stop-color="#2fb6c6"  /></linearGradient><linearGradient id="grd37" gradientUnits="userSpaceOnUse"  x1="170.731" y1="159.095" x2="182.054" y2="190.973"><stop offset="0" stop-color="#ffb33a"  /><stop offset="1" stop-color="#ff524a"  /></linearGradient><linearGradient id="grd38" gradientUnits="userSpaceOnUse"  x1="-17.012" y1="579.113" x2="-0.639" y2="628.722"><stop offset="0" stop-color="#ffb33a"  /><stop offset="1" stop-color="#ff524a"  /></linearGradient><linearGradient id="grd39" gradientUnits="userSpaceOnUse"  x1="112.686" y1="381.564" x2="126.46" y2="424.873"><stop offset="0" stop-color="#ffb33a"  /><stop offset="1" stop-color="#ff524a"  /></linearGradient><linearGradient id="grd40" gradientUnits="userSpaceOnUse"  x1="46.602" y1="170.839" x2="-59.241" y2="239.968"><stop offset="0" stop-color="#36c4d5"  /><stop offset="1" stop-color="#186974"  /></linearGradient><linearGradient id="grd41" gradientUnits="userSpaceOnUse"  x1="-48.111" y1="243.805" x2="-65.406" y2="316.657"><stop offset="0" stop-color="#f4f6f6"  /><stop offset="1" stop-color="#a1abaa"  /></linearGradient><linearGradient id="grd42" gradientUnits="userSpaceOnUse"  x1="233.56" y1="158.664" x2="203.635" y2="153.814"><stop offset="0" stop-color="#f4f6f6"  /><stop offset="1" stop-color="#a1abaa"  /></linearGradient><linearGradient id="grd43" gradientUnits="userSpaceOnUse"  x1="198.689" y1="329.912" x2="217.365" y2="348.862"><stop offset="0" stop-color="#f4f6f6"  /><stop offset="1" stop-color="#a1abaa"  /></linearGradient><linearGradient id="grd44" gradientUnits="userSpaceOnUse"  x1="-253.796" y1="514.359" x2="-216.081" y2="664.201"><stop offset="0" stop-color="#2fb6c6"  /><stop offset="1" stop-color="#165d68"  /></linearGradient><linearGradient id="grd45" gradientUnits="userSpaceOnUse"  x1="306.188" y1="794.041" x2="403.767" y2="728.561"><stop offset="0" stop-color="#36c4d5"  /><stop offset="1" stop-color="#186974"  /></linearGradient><linearGradient id="grd46" gradientUnits="userSpaceOnUse"  x1="-650.977" y1="640.733" x2="-508.19" y2="991.897"><stop offset="0" stop-color="#ffb33a"  /><stop offset="1" stop-color="#ff524a"  /></linearGradient><linearGradient id="grd47" gradientUnits="userSpaceOnUse"  x1="8.349" y1="192.419" x2="-85.811" y2="271.088"><stop offset="0" stop-color="#ffb33a"  /><stop offset="1" stop-color="#ff524a"  /></linearGradient><linearGradient id="grd48" gradientUnits="userSpaceOnUse"  x1="115.526" y1="773.025" x2="185.919" y2="765.758"><stop offset="0" stop-color="#3b464f"  /><stop offset="1" stop-color="#171f2b"  /></linearGradient><linearGradient id="grd49" gradientUnits="userSpaceOnUse"  x1="148.318" y1="75.453" x2="57.988" y2="88.651"><stop offset="0" stop-color="#f4f6f6"  /><stop offset="1" stop-color="#a1abaa"  /></linearGradient><linearGradient id="grd50" gradientUnits="userSpaceOnUse"  x1="207.595" y1="389.124" x2="218.029" y2="402.412"><stop offset="0" stop-color="#eef1f1"  /><stop offset="1" stop-color="#8d9897"  /></linearGradient><linearGradient id="grd51" gradientUnits="userSpaceOnUse"  x1="366.826" y1="255.346" x2="349.328" y2="228.414"><stop offset="0" stop-color="#af3836"  /><stop offset="1" stop-color="#ff524a"  /></linearGradient><linearGradient id="grd52" gradientUnits="userSpaceOnUse"  x1="223.869" y1="379.033" x2="252.121" y2="393.894"><stop offset="0" stop-color="#e0f6fb"  /><stop offset="1" stop-color="#8a9594"  /></linearGradient><linearGradient id="grd53" gradientUnits="userSpaceOnUse"  x1="197.168" y1="-0.453" x2="159.207" y2="26.649"><stop offset="0" stop-color="#f8fafa"  /><stop offset="1" stop-color="#a7b0af"  /></linearGradient><linearGradient id="grd54" gradientUnits="userSpaceOnUse"  x1="278.725" y1="33.056" x2="258.705" y2="29.361"><stop offset="0" stop-color="#af3836"  /><stop offset="1" stop-color="#ff524a"  /></linearGradient></defs><style>tspan { white-space:pre }.shp0 { fill: url(#grd1) } .shp1 { fill: #f1f1f1 } .shp2 { fill: url(#grd2) } .shp3 { fill: #dbdbdb } .shp4 { fill: #97dadd } .shp5 { fill: url(#grd3) } .shp6 { fill: #cccccc } .shp7 { fill: url(#grd4) } .shp8 { fill: url(#grd5) } .shp9 { fill: url(#grd6) } .shp10 { fill: url(#grd7) } .shp11 { fill: url(#grd8) } .shp12 { fill: url(#grd9) } .shp13 { fill: url(#grd10) } .shp14 { fill: #0799ab } .shp15 { fill: url(#grd11) } .shp16 { fill: url(#grd12) } .shp17 { fill: #00acc1 } .shp18 { fill: url(#grd13) } .shp19 { fill: url(#grd14) } .shp20 { fill: url(#grd15) } .shp21 { fill: url(#grd16) } .shp22 { fill: url(#grd17) } .shp23 { fill: url(#grd18) } .shp24 { fill: url(#grd19) } .shp25 { fill: url(#grd20) } .shp26 { fill: url(#grd21) } .shp27 { fill: #f5923a } .shp28 { fill: url(#grd22) } .shp29 { fill: url(#grd23) } .shp30 { fill: url(#grd24) } .shp31 { fill: url(#grd25) } .shp32 { fill: #ffffff } .shp33 { fill: url(#grd26) } .shp34 { fill: url(#grd27) } .shp35 { fill: url(#grd28) } .shp36 { fill: url(#grd29) } .shp37 { fill: url(#grd30) } .shp38 { fill: url(#grd31) } .shp39 { fill: url(#grd32) } .shp40 { fill: url(#grd33) } .shp41 { fill: url(#grd34) } .shp42 { fill: #444850 } .shp43 { fill: #26c6da } .shp44 { fill: url(#grd35) } .shp45 { fill: url(#grd36) } .shp46 { fill: url(#grd37) } .shp47 { fill: url(#grd38) } .shp48 { fill: url(#grd39) } .shp49 { fill: url(#grd40) } .shp50 { fill: url(#grd41) } .shp51 { fill: url(#grd42) } .shp52 { fill: url(#grd43) } .shp53 { fill: url(#grd44) } .shp54 { fill: url(#grd45) } .shp55 { fill: url(#grd46) } .shp56 { fill: url(#grd47) } .shp57 { fill: url(#grd48) } .shp58 { fill: url(#grd49) } .shp59 { fill: url(#grd50) } .shp60 { fill: url(#grd51) } .shp61 { fill: #ececec } .shp62 { fill: #a53b3b } .shp63 { fill: #f7f7f7 } .shp64 { fill: url(#grd52) } .shp65 { fill: #0d353a } .shp66 { fill: url(#grd53) } .shp67 { fill: url(#grd54) } </style><g ><g clip-path="url(#cp1)"><g ></g><g ></g><g ></g><g ></g></g><g ><g ><path class="shp0" d="M346.01 84.53C315.31 84.53 289.66 55.1 263.75 39.07C231.26 18.98 189.7 22.95 158.83 45.65C72.7 108.97 88.54 281.98 198.24 283.74C262.52 284.77 300.16 216.3 358.69 200C421.16 182.61 489.56 229.56 547.81 185.87C600.42 146.41 603.21 31.94 537.18 10.71C485.55 -5.9 451.68 41.63 408.98 64.8C396.03 71.82 375.04 78.4 346.01 84.53Z" /></g><g ><path class="shp1" d="M418.89 641.85C439.68 613.54 452.42 592.7 461.38 590.1C481.21 584.35 491.15 580.36 515.55 581.68C539.36 582.97 562.71 593.5 586.86 588.98C619.16 582.93 646.12 564.23 680.59 567.64C707.05 570.26 728.9 597.6 708.55 621.37C692.97 639.56 662.66 642.42 642.32 653.02C611.05 669.31 585.47 702.06 550.59 711.06C514.43 720.4 478.74 703.82 442.62 706.02C424.4 707.13 407.08 717.65 389.96 723.25C365.34 731.31 338.53 735.51 312.56 736.15C287.49 736.77 271.7 715.81 247.78 714.56C223.67 713.29 197.57 724.72 174.46 712.34C156.82 702.88 152.74 676.94 136.57 664.27C113.56 646.25 70.93 651.33 42.91 644.31C34.66 642.24 13.1 634.99 13.97 623.26C14.63 614.36 28.24 608.05 34.98 604.75C58.55 593.19 93.62 596.71 118.85 600.19C142.16 603.41 175.82 608.19 193.77 624.74C205.15 635.23 202.81 652.84 217.51 660.38C232.26 667.96 279.13 675.98 295.54 670.57C317.03 663.5 330.37 648.89 354.96 645.03C364.48 643.54 374.44 643.4 383.9 645.37C398.82 648.45 399.28 668.57 418.89 641.85Z" /></g><g ><path class="shp2" d="M427.47 450.8C424.16 450.8 420.84 449.74 417.63 447.63C414.09 445.34 412.3 442.71 412.3 439.83C412.3 437.82 412.48 435.79 412.81 433.81C413.87 427.44 416.66 421.15 421.11 415.12C423.62 411.75 426.89 408.2 430.86 404.59C439.29 406.34 447.23 410.15 454.46 415.9C457.77 418.53 460.75 421.42 463.32 424.48C461.45 425.93 459.78 427.2 458.38 428.3C454.98 430.99 451.42 434.07 447.8 437.47C444.25 440.87 441.7 443.25 440.21 444.55C435.63 448.7 431.34 450.8 427.47 450.8Z" /></g><g ><path class="shp3" d="M577.44 336.16C579.18 335.83 580.92 335.67 582.62 335.67C587.35 335.67 590.55 336.19 592.13 337.21C593.35 337.99 593.96 339.39 593.96 341.38C593.96 346.13 588.99 351.76 579.18 358.13C577.85 359 576.17 360.05 574.2 361.25L574.14 361.29L574.15 361.27C571.39 362.92 568 364.9 564.04 367.17C555.91 371.84 550.08 375.24 546.71 377.28C532.37 386.03 521.43 394.57 514.19 402.67C507.18 410.48 502.62 418.83 500.64 427.49C499.84 430.88 499.43 434.41 499.43 437.96C499.43 440.96 499.78 445.74 500.46 452.17C500.77 455.32 501.02 458.13 501.21 460.51C501.36 462.93 501.44 464.96 501.44 466.57C501.44 472.94 500.28 478.6 497.98 483.4C495.91 487.71 493.79 489.89 491.67 489.89C488.32 489.89 485.56 482.8 483.49 468.81C483.33 467.75 483.18 466.65 483.03 465.5C481.54 454.25 480.79 444.68 480.79 437.08C480.79 427.96 481.86 419.8 483.96 412.84C484.36 411.42 484.83 410.03 485.36 408.69L485.46 408.63L485.55 408.59C491.4 404.51 498.1 399.9 505.49 394.89C522.49 383.36 535.13 373.33 543.04 365.08C548.88 358.93 553.99 352.14 558.22 344.91C564.85 340.14 571.31 337.19 577.44 336.13L577.44 336.16Z" /></g><g ><path class="shp4" d="M483.97 412.87C483.75 412.69 483.53 412.52 483.32 412.36C482.82 411.96 482.32 411.57 481.82 411.2C482.97 410.34 484.15 409.52 485.37 408.68C484.88 410.04 484.41 411.44 484.01 412.86L484 412.9L483.97 412.87Z" /></g><g ><path class="shp5" d="M525.06 699.36L525.05 699.34C521.06 690.41 517.46 678.27 514.33 663.28C511.18 648.25 507.23 626.93 502.59 599.91C497.96 572.86 493.86 554.46 490.43 545.22C485.55 532.16 478.35 525.53 469.03 525.53C467.37 525.53 465.38 526.38 463.13 528.04C460.75 529.87 458.5 532.34 456.43 535.4C451.27 543.15 448.65 552.51 448.65 563.2C448.65 569.53 449.56 577.05 451.35 585.55C452.13 589.27 454.4 600.6 458.11 619.24C461.79 637.88 464.03 651.85 464.77 660.75C465.51 669.63 464.79 675.33 462.62 677.69C460.45 680.04 458.53 681.24 456.91 681.24C454.24 681.24 451.94 677.11 450.08 668.96C448.79 663.24 446.88 650.98 444.4 632.53C438.37 587.67 431.84 547.14 424.97 512.05C428.22 506.68 432.06 501.74 436.39 497.35C443.2 490.55 452.27 484.12 463.38 478.24C464.78 477.49 471.36 474.4 483.5 468.78C485.62 482.76 488.35 489.84 491.67 489.84C493.76 489.84 495.87 487.66 497.93 483.38C500.22 478.59 501.38 472.93 501.38 466.57C501.38 464.96 501.3 462.93 501.14 460.52C508.52 456.84 515.02 453.24 520.49 449.77C522.17 448.66 523.77 447.57 525.29 446.51C536.05 438.88 545.12 429.73 552.26 419.31C562.55 404.26 569.92 384.72 574.15 361.23C576.14 360.01 577.81 358.95 579.15 358.09C588.94 351.73 593.91 346.1 593.91 341.39C593.91 339.42 593.3 338.03 592.1 337.26C590.53 336.24 587.34 335.73 582.61 335.73C580.91 335.73 579.18 335.88 577.45 336.2C578.19 326.61 578.58 316.37 578.58 305.74C578.58 293.75 577.86 281.87 576.44 270.43C576.65 265.54 576.76 260.42 576.76 255.19C576.76 251.13 576.7 244.93 576.58 236.75C576.45 228.6 576.39 222.41 576.39 218.34C576.39 212.1 572.57 207.16 568.43 195.23C554.88 193.28 553.01 177.47 555.94 160.59C556.15 159.4 554.57 158.58 553.8 157.65C554.2 156.02 554.7 154.55 555.29 153.24C560.24 141.95 572.66 136.22 592.21 136.22C605.36 136.22 615.29 142.07 621.72 153.61C626.95 162.99 629.6 175.33 629.6 190.29L618.7 331.32C617.59 331.47 611.65 388.65 612.46 397.52C612.7 400.33 612.86 403.15 612.92 405.91L611.48 424.27L611.48 424.45L610.55 436.29C610.05 442.35 608.36 447.98 605.51 453.03C606.29 459.72 607.28 466.85 608.45 474.2C608.82 476.61 609.48 480.43 610.41 485.57C611.62 492.39 613.32 501.73 615.48 513.34C616.07 516.7 616.73 520.3 617.44 524.05C621.24 544.39 623.91 561.18 625.36 573.95C626.94 587.78 627.69 600.92 627.6 613C627.54 616.77 627.41 620.52 627.22 624.14C627.1 626.3 626.55 628.21 625.59 629.79C624.66 631.3 623.54 632.07 622.28 632.07C621.99 632.07 621.68 632.03 621.37 631.94C619.78 631.6 618.47 629.92 617.48 626.94C615.66 621.16 613.88 614.89 612.21 608.3C610.21 600.39 608.29 591.8 606.53 582.77C604.83 574.12 602.24 558.96 598.84 537.71C596.87 525.45 595.03 514.77 593.39 505.99C592.47 501.13 591.59 496.7 590.78 492.85L590.04 489.31C588.68 483.22 587.23 477.31 585.75 471.75C583.54 473.15 581 474.63 578.25 476.14C570.63 480.14 564.81 483.25 560.96 485.41C546.53 493.45 535.79 502.15 529.06 511.26C519.54 524.21 514.71 541.17 514.71 561.66C514.71 575.69 517.89 597.63 524.17 626.88C527.6 642.94 529.78 653.47 530.64 658.19C532.59 668.85 533.58 677.33 533.58 683.39C533.58 687.51 533 691.03 531.86 693.84C530.4 697.5 528.12 699.36 525.07 699.36L525.06 699.36L525.06 699.36Z" /></g><g ><path class="shp6" d="M444.75 490.05C450.1 485.92 456.33 481.97 463.38 478.24C464.78 477.49 471.36 474.4 483.5 468.78C484.11 472.78 484.76 476.21 485.46 479.07C476.94 483.35 469 487.25 463.32 490.03C456.11 493.57 449.45 492.18 444.75 490.05ZM584.16 354.58C579.59 380.32 573.91 404.84 568.43 415.45C557.17 437.26 536.86 451.13 520.53 460.56C515 463.75 508.24 467.38 501.17 471.06C501.31 469.6 501.38 468.11 501.38 466.57C501.38 464.96 501.3 462.93 501.14 460.52C508.52 456.84 515.02 453.24 520.49 449.77C522.17 448.66 523.77 447.57 525.29 446.51C536.05 438.88 545.12 429.73 552.26 419.31C562.55 404.26 569.92 384.72 574.15 361.23C576.14 360.01 577.81 358.95 579.15 358.09C580.99 356.89 582.66 355.72 584.16 354.58ZM569.96 190.43C575.61 190.47 581.54 191.92 587.03 193.78C604.28 199.63 595.21 253.02 593.46 283.75C592.8 295.38 590.5 315.06 587.26 335.94C585.93 335.8 584.38 335.73 582.61 335.73C580.91 335.73 579.18 335.88 577.45 336.2C578.19 326.61 568.43 318.32 568.43 307.69C568.43 295.7 569.85 281.87 568.43 270.43C568.65 265.54 568.76 260.41 568.76 255.19C568.76 251.13 568.69 244.92 568.57 236.74C568.45 228.59 568.38 222.4 568.38 218.34C568.38 212.09 574.29 202.89 570.15 190.95L569.96 190.43Z" /></g><g ><path class="shp7" d="M520.49 449.81C514.65 442.12 507.96 434.61 500.6 427.5C502.57 418.81 507.13 410.45 514.15 402.63C521.39 394.53 532.33 385.98 546.68 377.23C550.06 375.19 555.89 371.79 564.01 367.12C568 364.83 571.42 362.84 574.17 361.21C569.97 384.73 562.61 404.29 552.31 419.34C545.17 429.77 536.09 438.92 525.33 446.56C523.8 447.62 522.2 448.7 520.53 449.82L520.49 449.81Z" /></g><g ><path class="shp8" d="M644.47 517.8L644.44 517.8C642.44 517.74 640.4 517.63 638.38 517.47C636.59 517.32 634.75 517.13 632.93 516.91C633.68 511.29 634.04 506.8 633.97 503.56C633.88 500.31 634.34 497.77 635.33 496C635.73 495.35 636.21 494.75 636.73 494.22C636.76 494.13 636.83 494.06 636.93 494.03C637.91 493.04 639.15 492.29 640.61 491.8C640.77 491.73 640.92 491.69 641.08 491.65C641.1 491.63 641.14 491.61 641.18 491.61L641.45 491.52C642.08 491.36 642.69 491.28 643.28 491.28C644.1 491.28 644.89 491.44 645.62 491.75L645.61 491.78C646.07 491.95 646.49 492.19 646.88 492.5C648.46 493.74 649.64 496.17 650.38 499.74C650.82 502.09 651.43 506.61 652.2 513.15C652.39 514.77 652.57 516.28 652.76 517.67C650.9 517.79 649.04 517.83 647.21 517.83C646.29 517.83 645.38 517.82 644.47 517.8Z" /></g><g ><path class="shp9" d="M646.83 398.91C651.53 383.86 639.98 378.65 636.92 366.54C635.62 361.31 645.96 348.04 643.2 343.96C646.36 340.81 650.7 336.78 656.11 331.95C663.5 325.37 669.05 319.85 672.6 315.55C678.69 308.2 683.44 299.82 686.71 290.64C689.99 281.43 691.62 271.92 691.56 262.37C691.47 250.65 691.58 243.55 691.89 241.26C692.94 233.43 695.97 227.86 700.89 224.7C703.71 222.9 706.97 221.98 710.59 221.98C710.82 221.98 711.06 221.99 711.3 221.99C715.04 222.15 718.57 223.21 721.79 225.16C727.39 228.48 731.9 234.17 735.17 242.09C739.16 251.68 740.47 262.7 739.04 274.86C737.87 285 734.76 296.01 729.82 307.57C728.89 309.73 727.9 311.9 726.88 314C725.04 313.41 708.78 327.89 704.02 331.08C692.71 338.56 660.69 385.81 658.3 392.08C654.58 394.51 650.74 396.81 646.88 398.95L646.81 398.98L646.83 398.91Z" /></g><g ><path class="shp4" d="M611.43 424.26L612.87 405.91C612.99 412.1 612.5 418.27 611.48 424.27L611.43 424.26Z" /></g><g ><path class="shp10" d="M558.22 344.91C562.09 338.29 565.31 331.12 567.82 323.58C572.64 309.05 575.54 291.17 576.44 270.43C577.92 281.87 578.64 293.75 578.64 305.74C578.64 316.37 578.24 326.61 577.47 336.17C571.33 337.24 564.88 340.19 558.26 344.95L558.22 344.91Z" /></g><g ><path class="shp11" d="M658.25 392.06C660.64 385.79 662.55 380.8 663.98 377.11C667.41 368.24 670.62 360.78 673.53 354.93C681.6 338.69 691.43 326.67 702.75 319.18C707.52 316 712.43 314.02 717.35 313.31C718.57 313.14 719.77 313.05 720.91 313.05C723.04 313.05 725.04 313.36 726.87 313.96C717.79 333.02 713.04 359.36 697.86 374.76C688.03 384.75 669.7 384.68 658.29 392.1L658.22 392.14L658.25 392.06Z" /></g><g ><path class="shp12" d="M645.76 490C646.66 484 645.22 472.03 646.99 465.78C651.1 451.18 654.59 436.73 662.75 424.27C671.13 411.47 686.06 396.61 697.78 387.68C701.52 384.83 711.1 389.35 724.7 380.73C720.47 388.06 718.75 402.44 712.26 410.79C702.22 423.15 658.84 480.46 657.23 489.45C654.07 489.6 650.23 489.78 645.79 490.03L645.76 490.03L645.76 490Z" /></g><g ><path class="shp13" d="M632.93 516.91C630.79 516.63 628.59 516.29 626.4 515.89C626.29 515.49 626.21 515.12 626.15 514.75C623.89 502.07 624.24 488.51 627.17 474.44C629.46 463.83 633.68 451.09 639.71 436.55C646.85 420.32 652.12 407.9 655.36 399.66C656.39 396.92 657.35 394.39 658.25 392.06C669.67 384.63 680.44 375.8 690.26 365.82C705.44 350.43 717.75 332.98 726.83 313.98C728.57 314.55 730.16 315.4 731.58 316.48C734.74 318.96 736.92 322.57 738.07 327.21C739.02 331.05 739.28 335.49 738.81 340.41C737.76 351.26 734.22 362.63 728.28 374.2C727.2 376.33 726.01 378.54 724.74 380.77C711.13 389.4 702.33 395.21 698.59 398.06C686.88 406.99 676.69 418.01 668.32 430.8C660.16 443.26 653.94 456.97 649.83 471.56C648.06 477.81 646.71 484.01 645.82 490.01C641.84 490.31 638.87 491.67 636.96 494.07C636.86 494.11 636.81 494.17 636.78 494.25C636.25 494.78 635.78 495.38 635.38 496.03C634.39 497.78 633.94 500.32 634.03 503.56C634.09 506.81 633.73 511.29 632.96 516.89L632.96 516.92L632.93 516.91Z" /></g><g ><path class="shp14" d="M501.15 460.52C500.96 458.13 500.71 455.33 500.4 452.18C499.72 445.74 499.38 440.96 499.38 437.96C499.38 434.41 499.79 430.88 500.59 427.48C507.99 434.57 514.69 442.08 520.53 449.78C515.05 453.29 508.54 456.89 501.19 460.54L501.15 460.56L501.15 460.52Z" /></g><g ><path class="shp15" d="M593.41 506.01C591.43 505.24 589.28 504.36 587.03 503.4C587.66 498.82 588.68 494.09 590.04 489.3L590.84 492.84C591.65 496.7 592.53 501.12 593.45 505.98L593.46 506.03L593.41 506.01Z" /></g><g ><path class="shp16" d="M612.23 608.32C609.93 607.45 607.44 606.46 604.83 605.38C600 603.41 595.8 601.53 592.34 599.79C584.75 574.03 578.42 539.63 573.5 497.56C578.45 499.69 582.99 501.65 587.05 503.35C589.3 504.31 591.45 505.19 593.43 505.96C595.09 514.76 596.92 525.44 598.9 537.71C602.3 558.95 604.89 574.11 606.59 582.76C608.35 591.79 610.26 600.38 612.27 608.29L612.29 608.34L612.23 608.32Z" /></g><g ><path class="shp17" d="M373.85 661.39C368.84 661.39 363.91 660.62 359.21 659.1C358.69 655.39 357.28 644.84 354.95 627.45C350.75 596.41 348.55 572.49 348.43 556.35L348.43 555.04C348.43 534.51 350.5 516.86 354.58 502.58C358.23 489.78 363.87 478.44 371.36 468.88C377.36 461.25 385.78 453.37 396.38 445.49C400.27 442.59 405.8 438.65 412.83 433.79C412.53 435.8 412.36 437.82 412.36 439.83C412.36 442.69 414.14 445.3 417.66 447.58C420.87 449.68 424.17 450.75 427.47 450.75C431.33 450.75 435.6 448.65 440.17 444.51C441.66 443.21 444.21 440.83 447.77 437.43C451.38 434.03 454.94 430.94 458.35 428.25C459.75 427.15 461.41 425.88 463.29 424.48C468.02 420.92 474.26 416.44 481.83 411.15C482.36 411.52 482.86 411.91 483.35 412.32C483.57 412.47 483.79 412.64 484.01 412.83C481.91 419.82 480.85 427.96 480.85 437.08C480.85 444.68 481.6 454.24 483.08 465.5C483.24 466.64 483.39 467.75 483.55 468.8C471.56 474.37 464.79 477.55 463.41 478.29C452.31 484.16 443.24 490.59 436.44 497.39C432.11 501.77 428.28 506.71 425.03 512.06C422 517.03 419.41 522.52 417.34 528.36C412.55 542.05 410.12 558.93 410.12 578.53C410.12 592.19 411.35 609.09 413.76 628.74L415.81 645.94C411.96 648.53 408.18 650.82 404.56 652.77C401.53 654.34 398.54 655.72 395.66 656.87C388.14 659.87 380.8 661.39 373.85 661.39Z" /></g><g ><path class="shp18" d="M365.93 716.69C362.43 716.69 359.34 716.11 356.74 714.96C353.42 713.51 351.74 711.35 351.74 708.55C351.74 707 353.37 703.36 356.58 697.73C358.53 694.3 359.91 691.25 360.68 688.65C362.82 689.72 365.04 690.26 367.32 690.26C369.85 690.26 373.06 689.25 376.86 687.24C380.75 685.2 384.62 682.46 388.36 679.09C397.51 670.87 402.95 662 404.52 652.74C408.15 650.77 411.93 648.48 415.76 645.92C416.82 654.84 417.34 659.97 417.34 661.17C417.34 678.5 411.09 692.69 398.74 703.36C393.76 707.66 388.12 711.05 381.96 713.43C376.33 715.59 370.94 716.69 365.93 716.69Z" /></g><g ><path class="shp19" d="M674.61 496.87C672.79 495.08 671.1 493.73 669.58 492.87C667.54 491.67 665.23 490.77 662.7 490.22C660.51 489.71 658.83 489.45 657.7 489.45C657.53 489.45 657.36 489.46 657.21 489.47C658.78 480.44 661.89 471.32 666.4 462.32C670.92 453.44 677.52 443.38 686.02 432.4C690.88 426.12 698.44 416.67 708.48 404.31C714.97 395.96 720.42 388.03 724.69 380.74L725.07 380.45C736.13 373.4 744.69 367.01 750.5 361.44C756.44 355.76 761.75 349.17 766.29 341.88C770.68 334.86 774.35 327.23 777.19 319.2C779.98 311.5 782.47 305.93 784.6 302.65C788.22 297.08 792.63 294.02 797.72 293.55C798.18 293.52 798.62 293.5 799.07 293.5C804.64 293.5 809.21 296.61 812.66 302.75C815.99 308.72 817.41 315.46 816.85 322.8C815.77 336 811.06 349.33 802.86 362.41C795.91 373.51 786.43 384.45 774.68 394.94C768.3 400.57 757 409.47 741.08 421.4C726.43 432.35 715.27 441.42 707.91 448.37C696.6 459.04 687.64 470.38 681.27 482.1C679.08 486.14 676.85 491.11 674.66 496.86L674.64 496.9L674.61 496.87Z" /></g><g ><path class="shp20" d="M645.79 490C650.24 489.72 654.07 489.54 657.2 489.42C657.36 489.41 657.52 489.4 657.7 489.4C658.83 489.4 660.52 489.65 662.71 490.16C665.24 490.72 667.57 491.62 669.61 492.82C671.13 493.69 672.82 495.04 674.65 496.83C675.3 497.48 675.99 498.22 676.7 499.02C679.36 501.93 682.42 507.89 685.79 516.74C689.16 525.58 690.1 533.51 688.59 540.28C688.09 542.57 687.26 544.61 686.11 546.35C684.81 548.3 683.21 549.71 681.35 550.55C680.45 550.98 679.51 551.28 678.55 551.44C678.03 551.51 677.48 551.54 676.93 551.54C676.26 551.54 675.57 551.49 674.86 551.39C672.72 551.05 670.59 550.22 668.51 548.92C664.86 546.75 661.75 543.52 659.28 539.31C657.11 535.66 655.43 531.36 654.29 526.54C653.73 524.22 653.2 521.24 652.7 517.68C652.52 516.29 652.33 514.78 652.14 513.16C651.37 506.62 650.76 502.1 650.33 499.75C649.59 496.2 648.41 493.77 646.84 492.54C646.44 492.23 646.02 491.98 645.59 491.8C645.59 491.79 645.59 491.78 645.59 491.76C644.85 491.49 644.08 491.34 643.28 491.34C642.7 491.34 642.09 491.41 641.46 491.57L641.19 491.66L641.18 491.67L641.09 491.71C640.94 491.74 640.78 491.79 640.63 491.85C639.18 492.34 637.94 493.09 636.96 494.08L636.92 494.04C638.84 491.62 641.82 490.25 645.79 489.98L645.79 490Z" /></g><g ><path class="shp21" d="M610.36 485.58C609.43 480.44 608.77 476.62 608.4 474.22C607.22 466.86 606.23 459.73 605.46 453.02C608.31 447.96 610 442.34 610.49 436.29L611.43 424.45L611.43 424.26C612.45 418.27 612.93 412.1 612.87 405.91C612.81 403.16 612.65 400.34 612.4 397.53C611.6 388.66 609.71 379.79 606.77 371.17C604.17 363.56 602.6 358.46 602.11 356.02C600.99 350.23 601.44 345.24 603.42 341.19C605.67 336.54 609.71 333.43 615.41 331.95C616.49 331.64 617.59 331.42 618.67 331.29C619.71 331.15 620.76 331.08 621.78 331.08C624.95 331.08 628.06 331.78 631.03 333.16C635.61 335.29 639.6 338.75 642.88 343.42C643 343.57 643.13 343.74 643.25 343.93C646 348.01 648.06 352.74 649.36 357.96C652.42 370.09 651.59 383.87 646.89 398.93L646.14 401.17C643.24 409.82 636.82 423.74 627.08 442.54C618.64 458.68 613.07 472.97 610.5 485.03L610.41 485.58L610.36 485.58L610.36 485.58Z" /></g><g ><path class="shp22" d="M367.32 690.32C365.03 690.32 362.8 689.77 360.69 688.69C361.18 686.92 361.43 685.36 361.43 684C361.43 679.21 360.74 671.31 359.38 660.53C359.35 660.37 359.28 659.89 359.19 659.08C363.92 660.57 368.84 661.33 373.85 661.33C380.8 661.33 388.13 659.81 395.64 656.81C398.51 655.67 401.51 654.29 404.54 652.72C403 662.03 397.56 670.9 388.4 679.13C384.66 682.5 380.78 685.25 376.89 687.29C373.08 689.3 369.86 690.32 367.32 690.32Z" /></g><g ><path class="shp23" d="M641.41 614.61C637.08 614.61 632.42 614.08 627.57 613.03C627.64 600.92 626.89 587.78 625.31 573.96C623.86 561.19 621.19 544.4 617.39 524.07C616.68 520.31 616.02 516.7 615.43 513.35C619.18 514.31 622.86 515.16 626.41 515.83C628.6 516.23 630.79 516.58 632.93 516.86C634.76 517.07 636.59 517.26 638.38 517.42C640.41 517.57 642.44 517.68 644.44 517.74C645.36 517.76 646.28 517.78 647.21 517.78C649.04 517.78 650.9 517.73 652.73 517.65C653.25 521.23 653.79 524.2 654.34 526.52C655.49 531.34 657.16 535.64 659.33 539.28C661.8 543.48 664.9 546.71 668.54 548.87C670.61 550.17 672.74 551 674.87 551.33C675.57 551.44 676.27 551.49 676.93 551.49C677.48 551.49 678.02 551.45 678.54 551.38C677.61 567.44 676.55 585.39 675.4 605.27C672.45 606.71 669.83 607.89 667.61 608.79C658.26 612.59 649.45 614.55 641.41 614.61Z" /></g><g ><path class="shp3" d="M337.71 439.69C336.6 431.56 335.8 425.36 335.34 421.24C334.5 414.16 334.08 408.03 334.08 403.02C334.08 392.01 336.37 382.51 340.88 374.78C341.44 373.78 342.07 372.81 342.75 371.88C354.5 364.49 367.43 354.75 381.19 342.95C386.82 340.07 393.31 336.98 400.49 333.76C404.21 332.12 423.15 324.04 456.76 309.77C456.12 314.44 455.24 318.94 454.2 323.17C446.05 328.38 433.79 335.31 417.75 343.78C403.22 351.45 392.74 357.52 386.58 361.81C376.82 368.67 369.5 376.16 364.83 384.07C359.42 393.25 356.68 404.39 356.68 417.19C356.68 418.73 356.74 420.33 356.87 421.94C353.18 424.86 349.81 427.74 346.84 430.53C343.66 433.47 340.6 436.55 337.76 439.71L337.72 439.75L337.71 439.69Z" /></g><g ><path class="shp4" d="M463.28 424.52C460.71 421.46 457.74 418.57 454.43 415.95C447.2 410.2 439.27 406.39 430.87 404.63C434.13 401.49 437.99 398.28 442.32 395.03C444.42 393.46 447 391.6 449.99 389.5C441.66 384.54 432.69 379.61 423.31 374.86C426.95 371.48 430.25 368.09 433.09 364.75C441.28 355.17 447.51 344.06 451.63 331.73C452.55 328.98 453.4 326.1 454.14 323.16C455.19 318.92 456.07 314.43 456.75 309.79C458.02 301.29 458.66 291.98 458.66 282.12C458.66 274.74 458.21 263.44 457.31 248.53C457.21 247.1 457.14 245.72 457.07 244.38C456.36 247.6 455.61 250.55 454.89 253.15C452.58 243.41 449.89 236.18 446.83 231.63C442.07 224.62 434.78 220.57 425.14 219.58C425.64 218.17 426.17 216.78 426.7 215.35C432.14 200.78 435.98 190.89 438.12 185.95C442.5 175.84 447.08 167.44 451.72 160.97C457.04 153.58 463.41 147.53 470.65 142.98C471.96 150.66 476.29 156.72 483.58 161.01C490.9 165.37 500.27 167.58 511.43 167.58C517.82 167.58 522.63 167.28 525.73 166.69C529.43 165.98 532.61 164.56 535.17 162.46C537.7 160.39 540.41 157 543.22 152.4C543.72 151.59 544.28 150.65 544.9 149.56C548.44 151.96 551.43 154.68 553.85 157.62C554.62 158.55 555.34 159.53 555.99 160.55C561.15 168.47 565.94 178.69 570.2 190.94C574.35 202.87 576.45 212.09 576.45 218.34C576.45 222.41 576.51 228.6 576.63 236.74C576.76 244.93 576.82 251.13 576.82 255.19C576.82 260.42 576.71 265.54 576.49 270.43C575.6 291.18 572.7 309.06 567.88 323.59C565.37 331.14 562.14 338.32 558.28 344.94C554.04 352.17 548.93 358.96 543.08 365.12C535.17 373.38 522.53 383.41 505.53 394.94C498.14 399.95 491.43 404.55 485.59 408.64L485.4 408.73C484.19 409.57 483.01 410.39 481.86 411.2C474.29 416.48 468.05 420.96 463.32 424.52L463.28 424.52Z" /></g><g ></g><g ><path class="shp24" d="M434.9 288.75C432.77 283.34 429.24 278.48 424.42 274.31C418.43 269.09 411.71 266.05 404.45 265.28C407.71 259.55 410.88 253.39 413.84 246.93C417.05 239.92 420.85 230.71 425.12 219.54C434.8 220.51 442.11 224.58 446.88 231.6C449.94 236.15 452.64 243.4 454.89 253.13C454.27 255.25 453.66 257.18 453.07 258.88C451.28 264.05 449.1 268.72 446.6 272.77C443.72 277.41 439.8 282.79 434.95 288.76L434.92 288.79L434.9 288.75Z" /></g><g ><path class="shp25" d="M511.42 167.63C500.26 167.63 490.88 165.42 483.55 161.06C476.25 156.76 471.9 150.68 470.63 143.01C478.99 137.7 488.78 134.27 499.74 132.78C496.56 124.83 493.5 120.03 490.63 118.52C489.36 117.84 488.58 116.8 488.34 115.43C487.96 113.54 487.78 108.66 487.78 100.94C487.78 93.51 488.37 87.07 489.55 81.78C490.29 81.79 491.04 81.81 491.81 81.81C494.9 81.81 497.65 80.71 499.99 78.55C501.17 77.47 502.09 76.38 502.74 75.3L502.79 75.3C504.34 75.3 505.52 75.88 506.32 77.02C507.07 78.07 507.45 79.54 507.45 81.37C507.45 84.34 506.76 87.66 505.39 91.25C504 94.84 503.3 97.09 503.3 97.95C503.3 99.24 503.58 100.27 504.13 101.01C504.78 101.81 505.71 102.21 506.91 102.21C508.14 102.21 509.37 101.82 510.57 101.05L510.58 101.05C511.75 101.05 512.34 102.55 512.34 105.5L512.29 108.67C512.29 110.36 512.57 111.78 513.13 112.89L513.08 114.59C513.08 121.32 514.68 126.92 517.83 131.25C520.18 134.49 524.03 137.65 529.28 140.65C532.27 142.36 537.02 144.99 543.4 148.48C543.92 148.82 544.44 149.18 544.94 149.55C544.33 150.67 543.77 151.62 543.27 152.43C540.46 157.04 537.74 160.43 535.2 162.5C532.63 164.6 529.45 166.03 525.73 166.74C522.64 167.33 517.83 167.63 511.42 167.63Z" /></g><g ><path class="shp26" d="M302.75 387.68C301.04 387.68 299.49 386.97 298.12 385.57C296.38 383.8 295.5 381.33 295.5 378.24C295.5 369.23 299.25 360.37 306.64 351.89C312.98 344.63 320.97 338.59 330.37 333.95C343.38 327.52 355.32 319.87 365.86 311.22C377.3 301.76 387.39 290.82 395.86 278.7C398.8 274.5 401.68 269.97 404.43 265.24C411.73 266 418.46 269.04 424.46 274.27C429.29 278.45 432.82 283.31 434.95 288.73C430.99 293.58 426.3 298.92 421.02 304.64C408.8 317.85 395.54 330.62 381.6 342.62L381.23 342.99C367.47 354.8 354.54 364.53 342.79 371.92C341.42 372.76 340.08 373.57 338.78 374.35C324 383.19 311.88 387.68 302.75 387.68Z" /></g><g ><path class="shp27" d="M413.46 285.4C411.25 284.19 409.42 283.1 407.96 282.14C406.92 281.55 406.09 281.13 405.44 280.88C403.34 284.11 400.76 287.14 397.71 289.96C397.15 290.46 396.76 290.85 396.54 291.13C396.2 291.6 396.05 292.06 396.08 292.53C396.08 293.09 396.36 293.6 396.92 294.07C397.22 294.31 397.8 294.65 398.64 295.09C399.06 295.34 399.46 295.57 399.85 295.79C401.23 296.65 402.38 297.46 403.3 298.21C404.79 299.7 406.08 300.45 407.17 300.45C408.19 300.35 409.38 299.53 410.76 297.98L414.48 293.55C415.25 292.65 415.79 291.89 416.11 291.27C416.58 290.31 416.73 289.44 416.58 288.66C416.36 288.01 415.94 287.39 415.32 286.8C414.95 286.45 414.32 285.99 413.46 285.4Z" /></g><g ><path class="shp28" d="M308.02 713.48C300 713.48 293.9 711.83 289.88 708.58C286.47 705.82 284.74 702.15 284.74 697.65C286.26 694.71 287.81 689.99 289.35 683.62C294.98 683.82 300.39 684.63 305.46 686.03C310.25 687.35 313.92 688.03 316.36 688.03C323.02 688.03 329.22 685.43 334.78 680.3C339.42 676.04 343.57 670.08 347.13 662.61C347.02 673.81 346.63 682.03 346.01 687.03C345.18 694.15 343.56 699.59 341.21 703.21C338.7 707.02 334.79 709.74 329.6 711.28C324.68 712.74 317.41 713.48 308.02 713.48Z" /></g><g ><path class="shp29" d="M316.36 688.08C313.91 688.08 310.24 687.41 305.44 686.08C300.38 684.69 294.97 683.88 289.38 683.66C289.57 682.75 289.79 681.84 290 680.88C292.04 671.73 293.5 661.29 294.34 649.85C298.3 652.92 302.85 655.27 307.88 656.81C312.64 658.3 317.8 659.05 323.2 659.05C331.33 659.05 339.38 657.42 347.14 654.21L347.18 657.45L347.18 662.62C343.62 670.12 339.46 676.08 334.82 680.34C329.25 685.48 323.04 688.08 316.36 688.08Z" /></g><g ><path class="shp30" d="M323.2 659.11C317.79 659.11 312.63 658.35 307.87 656.87C302.83 655.32 298.28 652.97 294.35 649.87C294.92 641.78 295.22 633.02 295.22 623.81C295.07 606.53 294.99 593.33 294.99 584.58C294.99 533.44 303.6 492.62 320.57 463.25C325.4 454.87 331.16 446.93 337.72 439.67C340.56 436.51 343.62 433.42 346.81 430.49C349.78 427.7 353.15 424.82 356.83 421.91C362.61 417.34 369.34 412.51 376.86 407.56C383.66 403.06 393.75 396.43 406.86 387.86C413.01 383.53 418.54 379.14 423.31 374.81C432.74 379.57 441.72 384.51 450.04 389.48C447.04 391.63 444.45 393.5 442.35 395.08C438.02 398.32 434.17 401.54 430.89 404.63C426.94 408.24 423.66 411.78 421.16 415.15C416.71 421.17 413.92 427.45 412.87 433.82C405.83 438.7 400.3 442.63 396.41 445.53C385.81 453.41 377.39 461.28 371.4 468.91C363.92 478.46 358.28 489.79 354.63 502.59C350.56 516.87 348.48 534.52 348.48 555.04L348.48 556.35C346.51 567.26 345.5 580.65 345.5 596.13C345.5 603.3 345.78 613.88 346.34 627.58C346.81 639.12 347.09 648.09 347.18 654.23C339.4 657.47 331.34 659.11 323.2 659.11Z" /></g><g ><path class="shp31" d="M516.55 115.54C515.58 115.54 514.7 115.1 513.92 114.23C513.58 113.86 513.29 113.42 513.08 112.92L513.08 112.81C512.5 111.72 512.24 110.32 512.24 108.67L512.28 105.5C512.28 102.58 511.71 101.1 510.59 101.1C509.39 101.87 508.15 102.27 506.91 102.27C505.69 102.27 504.74 101.86 504.09 101.04C503.53 100.3 503.25 99.26 503.25 97.95C503.25 97.08 503.95 94.82 505.35 91.23C506.7 87.65 507.39 84.33 507.39 81.37C507.39 79.55 507.02 78.1 506.28 77.05C505.48 75.91 504.3 75.34 502.76 75.34C502.13 76.41 501.21 77.51 500.03 78.59C497.68 80.76 494.91 81.86 491.81 81.86C491.04 81.86 490.29 81.84 489.57 81.81C485.36 81.6 482.58 80.68 481.31 79.1C480.5 78.08 479.86 75.28 479.39 70.79C479.33 70.06 478.69 69.04 477.49 67.78C476.28 66.54 475.6 65.46 475.48 64.55C473.81 62.74 472.96 60.58 472.96 58.16C472.96 54.82 474.61 52.45 477.87 51.15C478.71 50.81 479.94 50.34 481.55 49.75C482.81 49.2 483.62 48.45 483.96 47.53C486 42.12 487.52 38.59 488.48 37.05C490.8 33.3 493.7 31.4 497.08 31.4C499.87 31.4 502.2 32.67 503.99 35.18C505.81 37.68 507.8 38.94 509.89 38.94C510.44 38.94 512.05 38.3 514.68 37.04C517.31 35.73 519.81 35.08 522.1 35.08C524.95 35.08 527.28 36.15 529.01 38.25C530.32 39.84 530.98 41.28 530.98 42.56C530.98 42.62 530.88 42.95 530.04 45.04C529.39 46.83 529.07 48.31 529.07 49.45C529.07 52.38 531.02 55.23 534.88 57.91C536.82 59.27 538.18 60.39 538.89 61.22C540.1 62.62 540.71 64.27 540.71 66.13C540.71 67.5 540.37 69.55 539.69 72.24C539.01 74.93 538.66 76.81 538.66 77.83C538.66 78.5 539.4 80.24 540.85 82.99C542.31 85.74 543.04 88.68 543.04 91.71C543.04 99.42 538.71 105.76 530.17 110.56C527.42 112.11 524.36 113.41 521.08 114.43C518.7 115.17 517.17 115.54 516.55 115.54Z" /></g><g ><path class="shp32" d="M505.76 345.76C506.27 345.34 523.09 331.13 530.06 307.36C534.82 291.13 534.81 265.69 530.03 231.05C529.94 230.41 530.38 229.83 531.02 229.74C531.66 229.65 532.24 230.09 532.33 230.73C537.13 265.82 537.11 291.58 532.29 308.01C527.44 324.59 519.08 337.77 507.24 347.57C507.22 347.57 507.21 347.58 507.21 347.59L454.8 388.17C454.29 388.56 453.56 388.47 453.17 387.96C452.77 387.45 452.87 386.72 453.38 386.33L505.76 345.76Z" /></g><g ><path class="shp33" d="M345.34 270.43C366.83 256.26 352.34 244.38 345.34 252.15C338.32 244.38 323.83 256.26 345.34 270.43Z" /></g><g ><path class="shp34" d="M356.65 238.82C396.62 212.48 369.68 190.39 356.65 204.84C343.61 190.39 316.68 212.48 356.65 238.82Z" /><path class="shp35" d="M356.65 238.82C396.62 212.48 369.68 190.39 356.65 204.84C343.61 190.39 316.68 212.48 356.65 238.82Z" /><path class="shp36" d="M383.19 188.68C436.78 153.36 400.67 123.75 383.19 143.11C365.71 123.75 329.6 153.36 383.19 188.68Z" /><path class="shp37" d="M352.5 126.91C421.89 81.19 375.13 42.84 352.5 67.92C329.87 42.84 283.11 81.19 352.5 126.91Z" /></g><g ><path class="shp38" d="M139.25 558.27C133.65 561.6 134.52 544.99 141.86 508.44C152.86 453.61 154.53 441.11 140.73 408.34C131.53 386.49 116.71 395.27 96.28 434.66L92.81 525.6L121.11 581.49L139.25 558.27Z" /></g><g ><path class="shp39" d="M128.57 555C127.77 548.01 127.88 540.19 128.9 531.74C130.44 518.73 133.77 506.67 138.78 495.91C143.01 486.85 148.35 479.01 154.63 472.61C160.54 478.55 165.63 485.22 169.81 492.46C171.08 494.62 172.3 496.93 173.44 499.31C169.73 502.14 167.75 503.65 167.38 503.96C163.67 507.08 160.82 510.55 158.91 514.29C156.75 518.62 155.01 526.71 153.74 538.37C146.09 545.78 137.64 551.37 128.61 555.02L128.58 555.04L128.57 555Z" /></g><g ><path class="shp40" d="M232.95 138.03C232.31 138.03 231.64 137.96 230.95 137.81C227.64 137.13 225.11 135.56 223.43 133.14C221.73 130.63 221.22 127.58 221.94 124.08C222.25 122.6 222.95 120.43 224.04 117.65C225.12 114.87 225.79 112.8 226.04 111.5C226.31 110.18 226.08 107.83 225.34 104.53C224.28 100.12 223.44 96.61 222.82 94C220.47 83.64 219.91 75.26 221.14 69.11C222.66 61.8 227.02 56.56 234.11 53.53C237.91 51.93 241.55 51.12 244.94 51.12C246.33 51.12 247.71 51.25 249.04 51.52C253.03 52.36 256.49 55.33 259.31 60.34C259.43 60.56 259.55 60.79 259.68 61.04C261.56 64.63 262.72 66.77 263.12 67.42C264.61 69.67 266.3 71.35 268.15 72.4C269.23 73.02 271.09 73.99 273.69 75.29C275.3 76.12 276.71 76.94 277.89 77.71C278.41 78.02 278.9 78.35 279.33 78.69C283.36 81.7 285.01 85.14 284.23 88.92C283.61 92.05 282.26 94.36 280.21 95.79C279.87 96.03 278.9 96.52 277.32 97.23C276.33 97.67 275.1 98.2 273.64 98.82C270.65 100.11 268.2 101.84 266.38 103.94C263.79 106.93 261.69 111.33 260.15 117.02C259.96 117.67 259.47 118.26 258.69 118.76C258.03 119.21 257.35 119.43 256.67 119.43C256.45 119.43 256.23 119.41 256.01 119.37C255.45 119.21 254.93 118.94 254.46 118.57C254.21 117.57 253.99 116.89 253.8 116.56C253.41 115.82 252.84 115.37 252.1 115.22C251.87 115.17 251.63 115.15 251.41 115.15C249.88 115.15 248.47 116.25 247.24 118.42C246.8 119.19 245.58 122.06 243.61 126.94C242.06 130.81 240.49 133.6 238.94 135.24C238.23 136.02 237.46 136.65 236.65 137.11C235.52 137.72 234.28 138.03 232.95 138.03Z" /></g><g ><path class="shp41" d="M76.07 589.32C74.24 589.32 72.66 588.85 71.37 587.91C69.45 586.58 68.11 583.99 67.4 580.21C66.47 575.01 66.68 569.75 68.01 564.59C68.81 561.49 69.97 558.59 71.45 555.96C72.51 554.11 73.73 552.35 75.09 550.74C76.18 549.44 77.35 548.25 78.59 547.2C81.25 544.87 84.33 542.97 87.73 541.55C90.59 540.38 93.29 539.79 95.76 539.79C96.55 539.79 97.34 539.85 98.09 539.97C98.31 539.95 98.54 539.94 98.77 539.94C101.88 539.94 104.76 541.35 107.33 544.12C106.86 543.88 106.41 543.69 105.95 543.56C105.51 543.43 105.06 543.36 104.61 543.36C103.91 543.36 103.17 543.52 102.42 543.84C101.41 544.27 100.52 544.91 99.78 545.74C99.66 545.87 99.55 545.99 99.46 546.11C98.25 547.62 97.36 549.89 96.81 552.86C96.56 554 96.13 556.47 95.55 560.17C95.39 560.95 95.25 561.78 95.13 562.64C94.48 566.66 93.79 569.91 93.08 572.29C92.09 575.75 90.68 578.81 88.88 581.38C86.87 584.29 84.44 586.49 81.65 587.91C79.95 588.78 78.18 589.25 76.42 589.31C76.3 589.32 76.19 589.32 76.07 589.32Z" /></g><g ><path class="shp42" d="M110.89 338.47C98.36 335.04 86.18 328.22 74.68 318.2C75.84 313.42 77.19 308.51 78.68 303.59C88.49 310.87 98.75 315.95 109.22 318.67C109.09 320.55 109.01 322.38 109.01 324.15C109.01 329.18 109.66 333.99 110.92 338.44L110.93 338.49L110.89 338.47Z" /></g><g ><path class="shp43" d="M221.13 686.08C210.46 686.08 200.92 684.29 192.79 680.77C188.3 678.82 184.33 676.36 180.99 673.45C182.04 665.51 183.09 656.76 184.11 647.43C186.24 628.45 187.65 612.16 188.3 599.02C188.58 593.24 188.72 587.95 188.72 583.28C188.72 568.93 187.84 555.57 186.11 543.54C183.61 526.54 179.33 511.67 173.39 499.34C174.67 498.31 156.65 470.6 154.66 472.65C153.23 471.26 151.79 469.88 150.34 468.55C147.28 465.77 143.75 462.95 139.86 460.16C141.33 455.96 97.8 431.19 98.11 434.65C93.43 431.46 84.07 430.27 80.98 427.21C68.39 414.77 67.45 395.02 67.45 372.41L67.45 371.71C67.51 355.17 69.94 337.16 74.67 318.18C86.21 328.18 98.39 334.99 110.9 338.42C113.49 347.37 118.69 355.2 126.38 361.72C135.1 369.14 145.51 373.7 157.35 375.28C158.73 384.26 159.77 393.32 160.45 402.23C190.06 428.21 211.76 456.1 224.93 485.1C232.81 502.38 238.39 520.95 241.51 540.27C243.59 552.98 244.64 566.34 244.64 579.97C244.64 601.7 241.52 625.33 235.36 650.19C232.3 662.61 229.18 673.01 226.09 681.08C226.09 682.55 226.41 684.16 227.02 685.86C225.07 686.02 223.09 686.08 221.13 686.08Z" /></g><g ><path class="shp44" d="M173.39 499.34C172.25 496.95 171.03 494.65 169.76 492.49C165.59 485.26 160.5 478.58 154.62 472.65C156.6 470.56 158.72 468.63 160.92 466.88C165.34 463.25 169.73 460.9 173.97 459.88C175.3 459.59 176.63 459.44 177.94 459.44C179.09 459.44 180.26 459.55 181.39 459.79C183.96 460.31 186.18 461.4 187.97 463.01C191.07 465.76 192.48 469.66 192.17 474.59C191.87 479.13 190.26 483.29 187.42 486.95C185.31 489.7 182.1 492.72 177.86 495.94C176.18 497.21 174.71 498.35 173.44 499.34L173.41 499.37L173.39 499.34Z" /></g><g ><path class="shp45" d="M139.86 460.16C136.3 457.63 132.35 455.06 128.12 452.52C121.29 448.68 115.65 445.45 111.35 442.93C109.23 441.68 107.4 440.6 105.85 439.66C103.07 438 100.45 436.32 98.07 434.68C97.75 431.19 97.34 427.02 96.84 422.27C96.23 416.42 96.12 411.22 96.52 406.79C96.76 403.73 97.27 400.98 98.01 398.63C98.88 395.76 100.12 393.19 101.69 390.99C103.46 388.54 105.56 386.72 107.95 385.57C109.99 384.6 112.24 384.1 114.62 384.1C116.23 384.1 117.94 384.33 119.71 384.78C123.58 385.8 127.23 387.75 130.57 390.56C138.06 397 142.88 406 144.89 417.32C146.68 427.31 146.18 437.96 143.39 448.97C142.56 452.21 141.38 455.98 139.9 460.15L139.86 460.16Z" /></g><g ><path class="shp46" d="M245.85 160.92C241.43 157.55 236.81 152.83 232.15 146.89C233.84 143.77 235.35 140.48 236.61 137.08C237.43 136.6 238.19 135.98 238.9 135.21C240.44 133.57 242.01 130.78 243.55 126.92C245.53 122.04 246.76 119.17 247.19 118.39C248.43 116.2 249.85 115.09 251.41 115.09C251.64 115.09 251.88 115.12 252.11 115.16C252.86 115.32 253.45 115.78 253.85 116.53C254.04 116.87 254.26 117.55 254.51 118.54C254.96 118.89 255.48 119.16 256.03 119.31C256.24 119.36 256.46 119.38 256.67 119.38C257.34 119.38 258 119.15 258.66 118.71C259.43 118.22 259.91 117.64 260.09 117C261.64 111.31 263.74 106.9 266.34 103.9C268.17 101.79 270.62 100.07 273.62 98.77C275.08 98.14 276.31 97.62 277.3 97.18C278.02 100.17 278.37 103.4 278.37 106.8C278.37 117.91 277.06 126.33 274.5 131.84C272.7 135.71 269.44 139.3 264.8 142.51C258.52 146.84 254.24 150.21 252.08 152.53C249.89 154.91 247.8 157.73 245.89 160.91L245.87 160.94L245.85 160.92Z" /></g><g ><path class="shp47" d="M100.48 560.34C98.85 560.34 97.18 560.29 95.52 560.2C96.08 556.46 96.5 554 96.75 552.85C97.31 549.88 98.2 547.6 99.41 546.08C99.51 545.95 99.61 545.83 99.74 545.7C100.48 544.87 101.38 544.22 102.41 543.79C103.16 543.47 103.9 543.3 104.61 543.3C105.07 543.3 105.53 543.37 105.97 543.51C106.43 543.63 106.89 543.84 107.32 544.12C107.45 544.21 107.59 544.32 107.75 544.45C109.11 545.5 110.29 547.41 111.25 550.14C112.21 553.05 113.07 556.1 113.81 559.18C110.42 559.77 106.92 560.13 103.4 560.29C102.43 560.32 101.46 560.34 100.48 560.34Z" /></g><g ><path class="shp48" d="M196.83 372.75C194.11 366.87 193.15 359.31 193.98 350.28C194.69 342.64 196.5 336.16 199.34 331.03C199.58 330.98 199.81 330.95 200.06 330.92C208.07 330.11 214.09 329.71 217.96 329.71L218.05 329.71C225.2 329.71 231.95 330.88 238.14 333.2C245.79 336.05 249.67 339.95 249.67 344.78C249.67 348.9 247.82 352.73 244.16 356.17C238.75 361.15 229.23 365.43 215.87 368.9C213.62 369.45 211.24 370 208.79 370.53C204.99 371.33 200.97 372.08 196.86 372.76L196.84 372.77L196.83 372.75Z" /></g><g ><path class="shp49" d="M241.46 540.28C238.33 520.96 232.76 502.4 224.88 485.12C211.71 456.13 190.01 428.25 160.4 402.25C159.71 393.32 158.68 384.27 157.32 375.3C160.5 375.68 163.8 375.88 167.18 375.88C167.33 375.88 171.8 375.52 180.45 374.81C180.64 374.78 180.83 374.76 181.01 374.76C182.95 377.21 185.25 379.64 187.88 381.99C191.03 384.84 195.3 388.16 200.55 391.87C201.26 392.36 202.01 392.87 202.79 393.4C206.43 395.88 212.2 399.74 219.93 404.91C227.48 410.13 234.08 415.32 239.55 420.33C244.56 424.91 248.75 429.47 251.99 433.89C261.67 447.01 266.58 462.42 266.58 479.71C266.58 490.38 264.18 501.18 259.45 511.82C255.43 520.79 249.39 530.37 241.51 540.29L241.47 540.34L241.46 540.28Z" /></g><g ><path class="shp42" d="M216.56 708.21C207.07 708.21 198.66 706.21 191.58 702.24C183.56 697.72 179.5 691.65 179.5 684.19C179.99 680.77 180.49 677.14 180.99 673.42C184.37 676.31 188.33 678.77 192.81 680.72C200.94 684.24 210.46 686.03 221.13 686.03C223.09 686.03 225.07 685.96 227 685.84C227.67 687.65 228.69 689.59 230.05 691.63C232.65 695.62 233.96 698.9 233.96 701.38C233.96 704.05 231.8 705.98 227.52 707.09C224.67 707.84 220.98 708.21 216.56 708.21Z" /></g><g ><path class="shp1" d="M180.99 374.8C175.85 368.25 173.25 361.31 173.25 354.2C173.25 350.61 175.24 343.16 179.17 332.06C180.1 332.07 181.01 332.08 181.94 332.08C185.84 332.08 191.7 331.72 199.37 331.01C196.55 336.18 194.75 342.65 194.04 350.28C193.2 359.31 194.16 366.86 196.88 372.73C191.85 373.54 186.52 374.23 181.01 374.82L181 374.82L180.99 374.8Z" /></g><g ><path class="shp1" d="M167.18 375.94C163.8 375.94 160.49 375.73 157.34 375.33C145.5 373.75 135.07 369.19 126.35 361.77C118.64 355.24 113.43 347.4 110.87 338.46C109.6 334 108.96 329.19 108.96 324.15C108.96 322.38 109.04 320.54 109.19 318.69C109.19 318.69 109.19 318.69 109.19 318.68C98.69 315.98 88.44 310.91 78.68 303.62L78.68 303.5C86.22 278.3 96.6 254.58 109.52 233C123.43 209.81 139.03 191.34 155.88 178.11C174.59 163.45 194.02 156.02 213.63 156.02C217.89 156.02 221.81 156.4 225.28 157.14C227.84 153.94 230.17 150.48 232.14 146.86C236.86 152.79 241.46 157.5 245.88 160.87C244.71 162.86 243.59 165 242.54 167.29C246.8 172.77 248.97 180.46 248.97 190.11C248.97 195.46 246.91 204.49 242.86 216.95C238.79 229.41 236.71 239.17 236.71 245.97C236.71 257.27 240.99 266.22 249.42 272.55C253.53 275.64 259.17 278.38 266.19 280.7C269.56 281.81 273.32 282.85 277.37 283.77C278.85 284.11 283.87 285.16 292.27 286.89C297.96 288.04 302.34 289.09 305.27 290.02C313.73 292.71 318.01 296.67 318.01 301.78C318.01 306.31 316.31 309.28 312.96 310.62C311.57 311.14 309.01 311.41 305.36 311.41C283.25 311.41 263.17 307.47 245.67 299.71C244.03 299 242.43 298.25 240.91 297.48C222.88 288.34 212.02 275.82 208.63 260.27C206.51 265.1 204.4 269.95 202.38 274.68C191.8 299.26 184.01 318.57 179.22 332.08C175.3 343.17 173.31 350.62 173.31 354.2C173.31 361.3 175.91 368.23 181.03 374.78C180.83 374.82 180.64 374.84 180.46 374.87C171.68 375.58 167.33 375.94 167.18 375.94Z" /></g><g ><path class="shp50" d="M96.1 258.09L128.04 262.23C117.38 280.64 111.1 299.45 109.19 318.68C98.69 315.98 88.44 310.91 78.68 303.62L78.68 303.5C83.4 287.73 89.23 272.54 96.1 258.09Z" /></g><g ><path class="shp51" d="M208.63 260.27L223.11 221.02C214.29 262.96 225.01 286.15 255.26 290.62C277.83 293.95 269.34 299.1 255.11 303.44C251.89 302.32 248.74 301.07 245.67 299.71C244.03 299 242.43 298.25 240.91 297.48C223.02 288.41 212.2 276.02 208.71 260.64L208.63 260.27Z" /></g><g ><path class="shp52" d="M246.24 269.85C247.22 270.79 248.28 271.7 249.42 272.55C253.53 275.64 259.17 278.38 266.19 280.7C269.56 281.81 273.32 282.85 277.37 283.77C278.85 284.11 283.87 285.16 292.27 286.89C297.96 288.04 302.34 289.09 305.27 290.02C308.19 290.95 310.61 292.03 312.53 293.25C312.4 294.13 312.21 295.03 311.97 295.93C311.21 298.88 309.91 301.69 308.28 304.26C306.6 306.88 304.56 309.25 302.3 311.38C281.4 311.04 262.36 307.11 245.67 299.71C244.03 299 242.43 298.25 240.91 297.48C233.88 293.91 227.94 289.83 223.11 285.26C223.91 284.14 224.77 283.09 225.67 282.15C231.2 276.45 238.76 272.78 246.24 269.85Z" /></g><g ><path class="shp53" d="M64.58 553.86C62.57 553.18 60.51 552.44 58.47 551.67C56.35 545.99 54.77 540.13 53.75 534.22C53.01 529.86 52.4 524.23 51.93 517.49C51.18 506.42 50.81 500.92 50.81 500.67C49.61 487.42 46.73 476.84 42.25 469.24C40.3 466.03 37.53 462.42 34 458.53C29.87 454.15 26.72 450.78 24.64 448.51C21.14 444.68 18.35 441.04 16.34 437.7C13.81 433.49 12.17 429.29 11.49 425.2C10.69 420.56 11.25 416.02 13.17 411.72C15.19 407.2 18.23 404.05 22.22 402.34C24.25 401.51 26.44 401.08 28.72 401.08C30.58 401.08 32.56 401.37 34.59 401.92C36.97 402.6 39.37 403.64 41.72 405C45.13 409.83 59.14 412.77 63.99 419.3C71.39 430.09 76.33 440.02 78.68 448.8C81.18 458.26 81.63 469.7 80.08 483.03C79.22 490.69 77.4 502.33 74.68 517.64C72.92 530 63.04 544.12 64.61 553.83L64.62 553.87L64.58 553.86Z" /></g><g ><path class="shp54" d="M171.26 625.32C169.5 623.96 167.8 622.39 166.22 620.66C162.29 616.36 158.92 610.82 156.2 604.21C155.37 602.19 154.52 599.9 153.69 597.4C152.79 594.68 151.86 591.61 150.94 588.27C150.28 585.78 149.71 583.53 149.21 581.51C150.55 579.47 152.05 577.45 153.69 575.48C154.19 574.89 154.68 574.31 155.18 573.75C158.15 570.41 163.04 565.55 169.72 559.31C177.04 552.48 182.55 547.17 186.12 543.52C187.89 555.56 188.77 568.93 188.77 583.28C188.77 587.95 188.63 593.24 188.36 599.02C181.18 607.76 175.72 615.98 172.14 623.49C171.86 624.09 171.58 624.69 171.3 625.31L171.29 625.34L171.26 625.32Z" /></g><g ><path class="shp55" d="M71.47 556C69.22 555.35 66.89 554.63 64.58 553.86C62.98 544.13 63.08 532.93 64.84 520.56C67.56 505.26 69.38 493.61 70.24 485.95C71.79 472.63 71.3 461.08 68.8 451.62C66.45 442.84 61.52 432.93 54.13 422.14C49.27 415.61 45.09 409.86 41.69 405.04C38.84 400.99 36.47 397.51 34.65 394.7C22.84 376.52 15.03 356.12 11.44 334.07C7.89 312.03 8.85 290.2 14.29 269.21C16.95 259.03 21.18 250.5 26.87 243.85C32.95 236.71 39.81 233.09 47.25 233.09C48.06 233.09 48.9 233.13 49.73 233.22C59.38 234.15 66.38 240.24 70.53 251.32C74.3 261.43 74.71 272.05 71.74 282.87C69.88 289.46 66.22 299.31 60.84 312.13C56.54 323.75 54.69 333.81 55.34 342.03C55.96 349.63 58.58 357.39 63.12 365.08C64.32 367.12 65.8 369.35 67.5 371.7L67.5 372.41C67.5 395 73.88 412.75 86.45 425.18C89.54 428.24 93.46 431.42 98.1 434.63C98.54 440.25 107.97 456.25 107.82 458.45C107.36 465.53 105.02 474.25 100.88 484.36C99.73 487.18 97.93 491.41 95.52 496.94C93.45 501.91 93.92 510.32 92.81 513.82C87.98 528.44 75.45 527.69 77.98 543.48C78.17 544.72 78.39 545.97 78.64 547.21C77.39 548.29 76.22 549.48 75.14 550.78C73.78 552.38 72.55 554.13 71.51 555.99L71.5 556.01L71.47 556Z" /></g><g ><path class="shp56" d="M98.09 539.99C97.32 539.9 96.54 539.84 95.76 539.84C93.3 539.84 90.61 540.43 87.75 541.6C84.35 543.02 81.28 544.92 78.62 547.24L78.59 547.27L78.58 547.22C78.33 545.98 78.12 544.73 77.93 543.49C75.39 527.69 76.55 512.26 81.38 497.63C82.49 494.14 84.11 489.84 86.18 484.87C88.59 479.34 90.39 475.11 91.54 472.29C95.68 462.18 98.01 453.47 98.48 446.39C98.63 444.2 98.49 440.25 98.06 434.66C100.49 436.28 103.1 437.95 105.88 439.62C107.43 440.55 109.26 441.63 111.37 442.88L111.38 442.93C115.72 445.42 121.34 448.64 128.15 452.48C132.38 455.01 136.33 457.58 139.89 460.12C137.98 465.47 135.51 471.63 132.54 478.46C126.57 492.09 122.62 501.92 120.8 507.67C117.34 518.61 115.91 529.17 116.56 539.06C116.99 545.92 118.43 552.17 120.84 557.64C118.54 558.3 116.17 558.81 113.79 559.21L113.76 559.22L113.76 559.2C113.02 556.11 112.15 553.07 111.19 550.16C110.24 547.45 109.07 545.54 107.71 544.49C107.56 544.37 107.42 544.26 107.29 544.16C104.73 541.4 101.86 540 98.77 540C98.54 540 98.31 540.01 98.08 540.02L98.09 539.99Z" /></g><g ><path class="shp42" d="M154.88 658.31C149.95 658.31 146.13 651.24 143.53 637.28C143.47 637.03 143.42 636.78 143.39 636.53C141.62 626.92 121.7 618.12 121.7 608.6C121.7 599.63 143.59 589.9 149.22 581.49C149.76 583.52 150.34 585.77 150.99 588.26C151.92 591.59 152.84 594.66 153.74 597.39C154.57 599.88 155.42 602.17 156.25 604.19C158.97 610.8 162.34 616.33 166.27 620.62C167.84 622.36 169.53 623.92 171.29 625.28C167.59 633.59 165.62 641.87 165.43 649.9C165.37 652.26 164.22 654.29 162.02 655.94C159.94 657.51 157.54 658.31 154.88 658.31Z" /></g><g ><path class="shp57" d="M115.74 641.85C104.12 641.85 91.31 639.43 77.67 634.65C74.51 633.53 71.49 632.34 68.67 631.1C63.21 598.66 58.62 571.46 55.01 550.25L58.49 551.62C60.54 552.39 62.59 553.13 64.6 553.81C66.91 554.58 69.23 555.3 71.49 555.95C70.02 558.62 68.86 561.51 68.06 564.6C66.73 569.76 66.53 575.01 67.45 580.2C68.17 583.96 69.49 586.54 71.4 587.87C72.68 588.79 74.25 589.26 76.07 589.26C76.19 589.26 76.3 589.26 76.42 589.26C78.18 589.2 79.93 588.73 81.62 587.87C84.4 586.45 86.83 584.25 88.84 581.35C90.63 578.79 92.04 575.73 93.02 572.28C93.74 569.89 94.43 566.65 95.07 562.63C95.2 561.77 95.34 560.94 95.49 560.16C97.18 560.24 98.85 560.29 100.48 560.29C101.46 560.29 102.43 560.27 103.39 560.23C106.91 560.08 110.41 559.72 113.78 559.16C116.16 558.76 118.53 558.24 120.81 557.63C123.44 556.89 126.05 555.99 128.59 554.97C137.61 551.33 146.06 545.73 153.69 538.35L153.74 575.5C152.1 577.49 150.59 579.51 149.26 581.52C143.64 589.93 140.79 598.73 140.79 607.69C140.79 617.21 141.68 626.91 143.44 636.52C141.86 637.2 140.23 637.81 138.58 638.37C131.49 640.68 123.81 641.85 115.74 641.85L115.74 641.85Z" /></g><g ><path class="shp58" d="M181.44 249.92L198.34 284.12L179.6 331.01C172.24 331.49 160.3 333.12 153.74 318.18C148.93 307.24 169.81 269.51 181.44 249.92Z" /></g><g ><path class="shp32" d="M188.18 237.54C174.56 258.9 164.42 277.71 157.76 293.97C155.17 300.29 153.28 306.09 152.61 310.71C152.14 313.91 152.27 316.57 153.1 318.46C155.98 325.02 159.62 328.48 163.4 330.27C169.01 332.93 175 331.88 179.52 331.71C179.91 331.7 180.21 331.37 180.19 330.99C180.18 330.6 179.85 330.3 179.47 330.32C175.13 330.48 169.38 331.56 164 329.01C160.45 327.33 157.08 324.05 154.38 317.89C153.63 316.19 153.57 313.8 153.99 310.91C154.65 306.38 156.51 300.69 159.05 294.5C165.69 278.31 175.79 259.57 189.36 238.29C189.57 237.96 189.47 237.53 189.15 237.32C188.83 237.11 188.39 237.21 188.18 237.54Z" /></g><g ><path class="shp59" d="M238.74 357.41C235.94 361.48 233.25 363.51 230.68 363.51C228.38 363.51 226.05 362.18 223.69 359.5L222.3 357.83C221.12 356.22 220.52 354.82 220.52 353.64C220.52 352.42 221.36 350.75 223.04 348.61C223.4 348.13 223.76 347.39 224.11 346.37C219.51 342.86 217.26 338.93 217.35 334.58C217.38 333.06 217.61 331.45 218.05 329.74C219.05 325.89 221.08 321.58 224.16 316.78C228.51 309.99 234.1 303.53 240.93 297.4C241.22 297.16 241.51 296.91 241.81 296.66C249.48 289.95 257.59 284.63 266.13 280.72C266.41 280.6 266.69 280.47 266.97 280.35C276.97 275.88 286.74 273.73 296.27 273.92C299.69 274.01 302.73 274.3 305.41 274.76C317.64 276.78 326.56 278.44 332.15 279.75C340.75 281.76 345.04 283.6 345.01 285.24C344.94 289.09 341.4 295.07 334.39 303.18C327.64 310.98 319.24 318.99 309.18 327.22C298.59 335.89 288.48 342.88 278.85 348.18C268 354.12 259.31 357.02 252.76 356.9C249.48 356.85 246.59 356.59 244.1 356.11C242.72 355.85 241.46 355.53 240.32 355.13L238.74 357.41Z" /></g><g ><path class="shp60" d="M224.19 335.2C224.46 327.46 227.34 320.26 232.84 313.59C239.43 305.59 249.42 297.34 262.81 288.83C296.92 285.98 317.34 287.3 324.09 292.79C334.2 301.04 322.85 307.2 318.4 312.04C311.08 319.99 292.74 333.76 281.18 341.17C269.99 347.1 262.38 350.47 258.35 351.29C254.26 352.12 246.73 351.48 241.35 349.8C237.06 356.1 232.99 358.79 229.14 357.9C223.35 356.56 222.37 352.87 230.24 345.68C226.59 342.29 224.58 338.79 224.19 335.2Z" /></g><g ><path fill-rule="evenodd" class="shp61" d="M404.58 288.37C405 288.14 405.49 288.04 406.01 288.09C406.95 288.17 407.39 288.62 407.61 288.84C407.97 289.21 408.17 289.62 408.28 290.03C408.44 290.68 408.42 291.48 407.77 292.27C407.64 292.43 407.44 292.63 407.15 292.82C407.06 292.87 406.87 292.96 406.57 293.08C406.24 293.42 406 293.7 405.84 293.92C405.29 294.68 404.8 295.52 404.44 296.01C402.4 298.77 400.46 301.74 398.73 304.7C394.09 312.65 389.17 327.85 388.99 336.78C388.26 374.28 383.4 384.13 396.41 410.09C403.42 424.07 400.11 438.04 391.58 446.17C383.02 454.33 369.11 456.81 354.68 447.32C349.77 444.1 344.07 444.41 338.55 446.91C329.52 451.02 321.02 460.84 316.57 472.2C307.65 494.98 305.44 512.7 298.93 534.49C296.69 541.97 290.88 554.64 281.22 565.19C271.4 575.92 257.65 584.46 239.74 583.5C219.44 582.43 206.3 564.73 203.64 545.72C201.55 530.83 204.94 516.79 208.56 502.8C212.02 489.4 215.72 476.04 214.43 461.91C213.86 455.7 211.27 450.9 208.35 446.26C205.13 441.15 201.52 436.22 199.23 430.17C196.5 422.96 197.6 413.61 198.68 406.15C200.38 394.4 204.77 382.54 211.78 372.97C214.56 369.18 217.56 365.57 220.52 361.93L222.85 359.09C222.96 358.84 223.13 358.61 223.33 358.4C224.32 357.39 225.95 357.38 226.95 358.37C227.26 358.67 228.32 359.92 227.33 361.61C226.95 362.26 224.59 365.05 224.5 365.17C221.59 368.74 218.64 372.28 215.92 376C209.39 384.91 205.34 395.95 203.75 406.88C202.79 413.55 201.59 421.91 204.02 428.36C206.18 434.07 209.64 438.7 212.69 443.53C216.03 448.82 218.89 454.35 219.54 461.44C220.88 476.18 217.13 490.12 213.52 504.08C210.06 517.43 206.73 530.8 208.71 545.01C211.04 561.65 222.24 577.44 240.01 578.39C256.19 579.25 268.57 571.43 277.44 561.73C286.48 551.86 291.93 540.02 294.02 533.02C300.58 511.08 302.81 493.26 311.8 470.33C316.76 457.67 326.37 446.82 336.43 442.25C343.63 438.97 351.08 438.83 357.49 443.04C369.44 450.89 380.96 449.21 388.04 442.46C395.14 435.69 397.66 424.03 391.83 412.39C378.39 385.57 383.11 375.42 383.87 336.67C384.06 327.07 389.31 310.67 394.3 302.11C396.13 299 398.17 295.88 400.31 292.97C400.87 292.22 401.68 290.79 402.58 289.81C403.21 289.14 403.9 288.64 404.58 288.37ZM406.36 293.17C406.42 293.15 406.45 293.14 406.46 293.13C406.49 293.12 406.52 293.11 406.57 293.09C406.5 293.11 406.44 293.14 406.36 293.17ZM406.57 293.09C406.57 293.08 406.57 293.08 406.57 293.08C406.58 293.08 406.58 293.08 406.58 293.08C406.57 293.08 406.57 293.08 406.57 293.09ZM404.17 292.63C404.4 292.84 404.78 293.09 405.39 293.17C404.93 293.1 404.51 292.91 404.17 292.63Z" /></g><g ><path fill-rule="evenodd" class="shp62" d="M405.17 289.64C405.38 289.51 405.62 289.45 405.88 289.48C406.72 289.55 406.87 290.14 406.92 290.37C406.99 290.66 406.98 291.02 406.69 291.38C406.63 291.46 406.53 291.56 406.38 291.65C406.32 291.69 406.19 291.74 405.98 291.82C405.98 291.82 405.98 291.82 405.98 291.82C405.98 291.82 405.97 291.82 405.97 291.83C405.96 291.83 405.95 291.83 405.95 291.83C405.95 291.83 405.95 291.83 405.95 291.83C405.62 291.97 405.32 292.32 405.02 292.7C404.33 293.54 403.74 294.6 403.31 295.18C401.25 297.98 399.28 300.99 397.53 304C392.79 312.11 387.78 327.64 387.6 336.75C386.85 374.59 382.04 384.53 395.16 410.72C401.85 424.05 398.75 437.4 390.61 445.16C382.46 452.93 369.2 455.19 355.44 446.15C350.13 442.66 343.95 442.93 337.97 445.64C328.66 449.87 319.86 459.98 315.27 471.7C306.33 494.51 304.12 512.25 297.59 534.09C295.39 541.44 289.68 553.88 280.19 564.25C270.63 574.7 257.25 583.04 239.81 582.11C220.2 581.07 207.59 563.89 205.02 545.53C202.96 530.82 206.33 516.97 209.91 503.14C213.42 489.6 217.13 476.08 215.82 461.78C215.24 455.33 212.57 450.33 209.53 445.51C206.36 440.48 202.79 435.64 200.54 429.67C197.89 422.67 199.01 413.59 200.06 406.35C201.73 394.82 206.03 383.19 212.91 373.79C215.67 370.02 218.66 366.43 221.61 362.81C221.69 362.7 227.05 355.88 228.03 354.43L228.08 354.36C228.13 354.23 228.21 354.11 228.32 354C228.77 353.54 229.51 353.53 229.96 353.99C230.15 354.17 230.34 354.44 230.31 354.88C230.31 354.96 230.26 355.3 229.96 355.74C228.95 357.21 223.5 364.17 223.41 364.28C220.49 367.87 217.53 371.43 214.79 375.17C208.13 384.26 203.98 395.53 202.37 406.68C201.37 413.56 200.2 422.2 202.72 428.85C204.91 434.66 208.42 439.37 211.5 444.27C214.73 449.39 217.52 454.71 218.14 461.57C219.47 476.14 215.74 489.92 212.17 503.73C208.66 517.26 205.31 530.81 207.33 545.21C209.75 562.49 221.48 578.8 239.94 579.78C256.59 580.67 269.34 572.65 278.47 562.68C287.68 552.62 293.23 540.55 295.36 533.42C301.9 511.52 304.13 493.73 313.1 470.84C317.92 458.53 327.23 447.97 337.01 443.52C343.75 440.45 350.73 440.26 356.72 444.2C369.35 452.5 381.52 450.61 389.01 443.47C396.5 436.33 399.23 424.04 393.08 411.76C379.76 385.18 384.51 375.11 385.27 336.7C385.45 327.28 390.62 311.21 395.51 302.82C397.31 299.74 399.32 296.67 401.44 293.8C401.88 293.2 402.49 292.12 403.2 291.24C403.8 290.49 404.49 289.89 405.17 289.64ZM405.95 291.83C405.96 291.83 405.96 291.83 405.97 291.83C405.97 291.82 405.98 291.82 405.98 291.82C405.98 291.82 405.97 291.82 405.95 291.83ZM228.28 355.59L228.29 355.6L228.26 355.57L228.28 355.59ZM228.23 355.54L228.25 355.55L228.22 355.52L228.23 355.54ZM228.15 355.42L228.19 355.48C228.17 355.45 228.16 355.43 228.15 355.41L228.15 355.42ZM228.08 355.27L228.08 355.29L228.08 355.27L228.08 355.27ZM405.13 291.61C405.23 291.68 405.38 291.76 405.6 291.79C405.43 291.76 405.26 291.7 405.13 291.61ZM228.11 355.34L228.12 355.36L228.1 355.33L228.11 355.34Z" /></g><g ><path class="shp63" d="M412.89 283.56C410.68 282.35 408.86 281.27 407.39 280.31C406.36 279.71 405.52 279.29 404.88 279.05C402.77 282.28 400.19 285.31 397.14 288.13C396.58 288.63 396.19 289.02 395.98 289.3C395.63 289.76 395.48 290.23 395.51 290.69C395.51 291.25 395.79 291.77 396.35 292.23C396.66 292.48 397.24 292.82 398.07 293.25C398.49 293.5 398.89 293.74 399.28 293.96C400.66 294.82 401.81 295.63 402.73 296.38C404.22 297.87 405.51 298.62 406.6 298.62C407.63 298.52 408.82 297.7 410.19 296.15L413.91 291.72C414.69 290.82 415.23 290.06 415.54 289.44C416.01 288.47 416.16 287.6 416.01 286.83C415.79 286.17 415.38 285.55 414.75 284.96C414.38 284.62 413.76 284.16 412.89 283.56Z" /></g><g ><path class="shp64" d="M248.13 297.84C271.59 293.6 286.09 300.64 297.86 307.34L276.18 328.59C268.52 320.41 248.51 314.27 228.28 314.53L248.13 297.84Z" /></g><path class="shp65" d="M259.49 314.21C261.27 315.06 263.26 315.46 265.06 316.31C267.01 317.22 268.75 318.53 270.69 319.49C271.43 319.86 272.41 320.24 273.32 320.72C274.12 321.14 274.88 321.62 275.31 322.28C275.51 322.61 275.95 322.7 276.27 322.49C276.6 322.29 276.69 321.85 276.48 321.53C276.04 320.84 275.34 320.27 274.54 319.8C273.47 319.16 272.22 318.69 271.31 318.24C269.37 317.27 267.62 315.96 265.65 315.04C263.85 314.2 261.87 313.8 260.09 312.95C259.74 312.78 259.32 312.93 259.16 313.28C258.99 313.63 259.14 314.04 259.49 314.21Z" /><path class="shp65" d="M272.1 312.05C273.75 312.25 275.27 313.12 276.73 314.12C278.32 315.19 279.84 316.41 281.38 317.23C281.71 317.41 282.14 317.28 282.32 316.94C282.5 316.6 282.37 316.18 282.03 315.99C280.54 315.2 279.06 314.01 277.52 312.96C275.86 311.84 274.13 310.89 272.27 310.66C271.88 310.61 271.54 310.88 271.49 311.27C271.44 311.65 271.71 312 272.1 312.05Z" /><path class="shp65" d="M280.25 307.67C281.99 308.2 283.63 308.99 285.27 309.73C285.65 309.9 286.09 310.06 286.5 310.27C286.82 310.43 287.13 310.61 287.33 310.87C287.57 311.18 288 311.24 288.31 311.01C288.62 310.78 288.68 310.34 288.45 310.03C287.85 309.24 286.71 308.85 285.85 308.46C284.15 307.69 282.45 306.88 280.66 306.33C280.29 306.22 279.9 306.43 279.79 306.8C279.67 307.17 279.88 307.56 280.25 307.67Z" /><path class="shp65" d="M271.66 316.02C273.39 316.71 275.05 318.15 276.63 319.15C276.86 319.3 277.14 319.62 277.43 319.86C277.75 320.13 278.07 320.32 278.36 320.39C278.74 320.47 279.11 320.23 279.19 319.85C279.27 319.47 279.03 319.1 278.65 319.02C278.5 318.99 278.36 318.82 278.2 318.68C277.91 318.41 277.62 318.12 277.38 317.97C275.72 316.92 273.99 315.44 272.17 314.73C271.82 314.58 271.41 314.76 271.27 315.12C271.13 315.48 271.3 315.88 271.66 316.02Z" /><path class="shp65" d="M285.05 306.45C286 306.52 286.82 307.06 287.6 307.68C288.51 308.4 289.37 309.24 290.25 309.79C290.58 310 291.01 309.9 291.21 309.57C291.42 309.25 291.32 308.82 290.99 308.61C290.15 308.08 289.34 307.28 288.47 306.59C287.47 305.79 286.39 305.15 285.16 305.05C284.77 305.03 284.44 305.31 284.41 305.7C284.38 306.08 284.67 306.42 285.05 306.45Z" /><g ><path class="shp32" d="M286.05 280.72C253.16 298.95 237.03 310.64 237.67 315.8C238.3 320.96 243.97 317.73 254.65 306.11L297.86 279.05C293.68 276.74 289.74 277.3 286.05 280.72Z" /></g><g ><path class="shp66" d="M275.82 65.48C274.89 59.92 274.29 55.76 274.05 52.99C268.72 54.82 263.79 57.28 259.24 60.35C253.79 64.05 248.92 68.65 244.61 74.15C236.94 83.93 232.48 94.94 231.24 107.18C235.86 100.34 241.44 94.7 247.96 90.27C249.13 89.47 250.35 88.71 251.59 87.98C255.94 85.44 260.46 83.5 265.15 82.16C269.36 80.95 273.71 80.22 278.2 79.97C278.13 79.46 278 78.7 277.83 77.69C277.44 75.17 276.77 71.1 275.82 65.48Z" /></g><g ><path class="shp67" d="M275.5 63.67C268.63 62.42 263.39 64.36 259.78 69.49L261.08 76.97C264.8 74.13 272.25 72.83 276.86 73.1L275.5 63.67Z" /></g><g ></g><g ></g><g ></g><g ></g><g ></g><g ></g></g></g></svg>